<mxfile host="65bd71144e">
    <diagram id="1xt1Wa68nJ00F66uyJxT" name="arquitetura">
        <mxGraphModel dx="948" dy="567" grid="0" gridSize="10" guides="1" tooltips="1" connect="1" arrows="1" fold="1" page="0" pageScale="1" pageWidth="850" pageHeight="1100" math="0" shadow="0">
            <root>
                <mxCell id="0"/>
                <mxCell id="1" parent="0"/>
                <mxCell id="18" style="edgeStyle=orthogonalEdgeStyle;html=1;strokeColor=#6666FF;strokeWidth=2;fontSize=12;fontColor=#808080;" parent="1" edge="1">
                    <mxGeometry relative="1" as="geometry">
                        <mxPoint x="400.6300000000001" y="125" as="sourcePoint"/>
                        <mxPoint x="560" y="125" as="targetPoint"/>
                        <Array as="points">
                            <mxPoint x="443" y="125"/>
                            <mxPoint x="443" y="125"/>
                        </Array>
                    </mxGeometry>
                </mxCell>
                <mxCell id="33" style="edgeStyle=orthogonalEdgeStyle;shape=link;html=1;strokeColor=#6666FF;strokeWidth=2;fontSize=12;fontColor=#808080;" parent="1" target="14" edge="1">
                    <mxGeometry relative="1" as="geometry">
                        <mxPoint x="348.81500000000005" y="237" as="sourcePoint"/>
                    </mxGeometry>
                </mxCell>
                <mxCell id="6" value="" style="rounded=1;whiteSpace=wrap;html=1;strokeColor=#808080;fontColor=#222222;fillColor=none;gradientColor=none;arcSize=14;" parent="1" vertex="1">
                    <mxGeometry x="455" y="72" width="210" height="153" as="geometry"/>
                </mxCell>
                <mxCell id="7" value="&lt;i&gt;&lt;font color=&quot;#ffffff&quot;&gt;Scrappers&lt;/font&gt;&lt;/i&gt;" style="rounded=1;whiteSpace=wrap;html=1;strokeColor=none;fontColor=#222222;fillColor=#FF5C55;gradientColor=#6666FF;arcSize=50;gradientDirection=east;" parent="1" vertex="1">
                    <mxGeometry x="509.5" y="59" width="101" height="23" as="geometry"/>
                </mxCell>
                <mxCell id="19" style="edgeStyle=orthogonalEdgeStyle;html=1;strokeColor=#6666FF;strokeWidth=2;fontSize=12;fontColor=#808080;" parent="1" source="8" edge="1">
                    <mxGeometry relative="1" as="geometry">
                        <Array as="points">
                            <mxPoint x="443" y="145"/>
                            <mxPoint x="443" y="145"/>
                        </Array>
                        <mxPoint x="400.6300000000001" y="145" as="targetPoint"/>
                    </mxGeometry>
                </mxCell>
                <mxCell id="8" value="Portais e sites&lt;br&gt;com informações&lt;br&gt;de ativos financeiros" style="sketch=0;pointerEvents=1;shadow=1;dashed=0;html=1;strokeColor=none;fillColor=#FF5C55;labelPosition=center;verticalLabelPosition=bottom;verticalAlign=top;align=center;outlineConnect=0;shape=mxgraph.veeam2.globe;fontColor=#808080;gradientColor=#6666FF;gradientDirection=east;" parent="1" vertex="1">
                    <mxGeometry x="560" y="107" width="56" height="55" as="geometry"/>
                </mxCell>
                <mxCell id="10" value="&lt;i style=&quot;font-size: 10px;&quot;&gt;&lt;font color=&quot;#ffffff&quot; style=&quot;font-size: 10px;&quot;&gt;request&lt;/font&gt;&lt;/i&gt;" style="rounded=1;whiteSpace=wrap;html=1;strokeColor=none;fontColor=#222222;fillColor=#FF5C55;gradientColor=none;arcSize=50;gradientDirection=east;fontSize=10;" parent="1" vertex="1">
                    <mxGeometry x="471" y="100" width="60" height="18" as="geometry"/>
                </mxCell>
                <mxCell id="11" value="&lt;i style=&quot;font-size: 10px;&quot;&gt;&lt;font color=&quot;#ffffff&quot; style=&quot;font-size: 10px;&quot;&gt;response&lt;/font&gt;&lt;/i&gt;" style="rounded=1;whiteSpace=wrap;html=1;strokeColor=none;fontColor=#222222;fillColor=#22C7FF;gradientColor=none;arcSize=50;gradientDirection=east;fontSize=10;" parent="1" vertex="1">
                    <mxGeometry x="471" y="153" width="60" height="18" as="geometry"/>
                </mxCell>
                <mxCell id="17" style="edgeStyle=orthogonalEdgeStyle;html=1;fontSize=12;fontColor=#808080;curved=1;strokeColor=#6666FF;strokeWidth=2;" parent="1" source="13" edge="1">
                    <mxGeometry relative="1" as="geometry">
                        <Array as="points">
                            <mxPoint x="286" y="135"/>
                            <mxPoint x="286" y="135"/>
                        </Array>
                        <mxPoint x="297" y="134.5" as="targetPoint"/>
                    </mxGeometry>
                </mxCell>
                <mxCell id="13" value="&lt;font style=&quot;font-size: 12px;&quot;&gt;Usuário&lt;/font&gt;" style="fillColor=#6666FF;verticalLabelPosition=bottom;sketch=0;html=1;strokeColor=#ffffff;verticalAlign=top;align=center;points=[[0.145,0.145,0],[0.5,0,0],[0.855,0.145,0],[1,0.5,0],[0.855,0.855,0],[0.5,1,0],[0.145,0.855,0],[0,0.5,0]];pointerEvents=1;shape=mxgraph.cisco_safe.compositeIcon;bgIcon=ellipse;resIcon=mxgraph.cisco_safe.capability.user;shadow=1;fontSize=10;fontColor=#808080;gradientColor=default;" parent="1" vertex="1">
                    <mxGeometry x="144" y="97" width="76" height="75" as="geometry"/>
                </mxCell>
                <mxCell id="34" style="edgeStyle=orthogonalEdgeStyle;shape=link;html=1;strokeColor=#6666FF;strokeWidth=2;fontSize=12;fontColor=#808080;" parent="1" target="25" edge="1">
                    <mxGeometry relative="1" as="geometry">
                        <mxPoint x="349" y="349" as="sourcePoint"/>
                    </mxGeometry>
                </mxCell>
                <mxCell id="14" value="Conteúdo bruto&lt;br&gt;em HTML" style="dashed=0;outlineConnect=0;html=1;align=center;labelPosition=center;verticalLabelPosition=bottom;verticalAlign=top;shape=mxgraph.weblogos.html5;shadow=1;strokeColor=#808080;fontSize=12;fontColor=#808080;fillColor=#6666FF;gradientColor=default;gradientDirection=east;" parent="1" vertex="1">
                    <mxGeometry x="327.32" y="257" width="43" height="56" as="geometry"/>
                </mxCell>
                <mxCell id="28" style="edgeStyle=orthogonalEdgeStyle;html=1;strokeColor=#6666FF;strokeWidth=2;fontSize=12;fontColor=#808080;" parent="1" source="25" target="27" edge="1">
                    <mxGeometry relative="1" as="geometry"/>
                </mxCell>
                <mxCell id="25" value="Parse de HTML&#10;em objetos pré definidos" style="shape=image;verticalLabelPosition=bottom;labelBackgroundColor=none;verticalAlign=top;aspect=fixed;imageAspect=0;image=data:image/webp,UklGRtgcAABXRUJQVlA4TMwcAAAvAYNSEP8HJIT/59WICUjcwx///4qc5v93zsxqNrq4WyFocYK7u+uFu2upt2hb6u1V3KXe4taUAjXcPUggSNx1Zea8/sjua85M9tqE+Ugi+j8BpNj/xf4v9n+x/4v9X+z/Yv8X+7/Y/8X+L/Z/sf/1ypYq3aZ/smPv0V+2rZrQroxBf2eoNWdfdJbEIL/sTru9Y2R5QVdnarPxiROU5t56p5agmxPqrEsErtL9pWWoPi5wyn0GvF0nOxr0cJXW54Caz2YG6t5oraMSqJu1MkTvVvdvBmo7vgjWt1U7DhrMW2bVs4V+y7QA6RME/ZrxdQcoZFJedma2Q1IC0S30a21jAS89+2FOl4bhTXotPpQo4+BgsF4t+ACgWfTCygLxLISvSMTlTtSrDctGubdUImha6yDDwJUy+rTgE4DNXmAiSq1rXBjHNH1azwyMc4ZIlBs/khDwd4AeTVzHEOwzA+EZ+CtDpLbTo5W/C8grYYRv+BOEtFqP1jkD4RhKONO33d7gN4sO7Q0JcSmIF6n5FPGiqg5tD3iX3yHcxe+Zt6wO+jPrX4ic1vzITLc311j9WekbiBflVOic6U1+S39W+QHiWrAK9ZMRK/RnNZ4i/rGqUDnOG/tS13bCqELJu96k1/V6xt3MS0orvR5p/9yTe6NJtyeOfSoDQO6P5YhujwgtNtyO/mNaMNHxESJYrEaiS9eSfr3Yf8X+K/Zfsf+K/fd/TlGjyUjVEgKrdxo8csSwAZ1qhVjoSxxD9YhOnb12aN++fft2bdq1b9+2df6IFs0b1a0aTAtjoa2Wbt2zfVmnEmqEdfr4SFSGw+Vy5mVEn/5hdbdKgo8wVGzUsukrpqIzWmPNw5R072keU1PT0lJTPCYnJ8Y+OLZs1CvWQpbQ7mCyGwCktBM9DbyMPY+lyoCWM64PFn1ChWU3E1OSo9c1FIrIaJOLDLTojPphcGlaiKK9HoL3hFGUj2VhEnB8Wt8XVDkogcd7nWjRWOl/QbN5p/8TWtiglF+1q4B9XI2L6e1s4MlWGgqebb0MXs9WKBITZ8vaAcjbH2EoRAiV+85YNK6xkdMiF4rN40Fn5wDfH60FLyIZvLvH0qIw2++g7WdTAwoN5pFXXAAs7v0gLnQz4L7i8UoscP7WUvDGywjYbioKK3lDY5D9YUghwTAxHTy65otctij4hoOwBjjL04QCR2cxTGRQUVipW1oD50e2wkHdaPB6tywPsobhVnEoE82JXapIfMsfRWM3NQc5M8TCAJ0je8uox6VtAiqvuzI6VkaxnGs7vlq/93pc1K661MecDC56y378CBn9LMUlMx4Q07QwIKwB786WXIwfORHSeoMywx7Asss9QighQnD5EgLxgUV97MOSdmSJ0nU6j1u6+Z5DGfvRVggQ16lFApcnecn4KJAoL/cI9bgZ8alFffJCopyGdNyTpgQyBxcCDBtVI0L9T0/feXj/7DdNBMKxeQ5Gfpu+VFrEgRBiiDgqKYAjQf6f9Vf1CKFGqy3ARAnXnjImsRV5+UVIic2yghev+n+2w1pQU1gI2BvlX4qRMscVuOb4f+WuFizjetQ/JV6OkYbPcbBN8PtqPi5gm1GHbS/JDB8r2Gf2+xrEFSzTj6j9AS/JSIc83F9hfl+b9IJlPYlhnxtelpW8W8jomFHATmHkJeRlmfWfQkavbB+y+KWZObKQ0TdHj3ECd8iqHrWUqhYeHl6jnI1qyxBcrlp4eHjNynaTjxvrQjiaF4Q/UEv8GcFWtkbt8PCalUMN/6MsJavWCq9R2lRICLqMW0/VEUMaTvto95kHMTEx0Vd+/XRJ9zJmLYhBFbvNX7XhyNWHMTExT+6d3v7BvI5lA9QQS3WcMrNPRaMqAbWGzx7fOJiiTA2nzZk9e/asvQwhfTrb45wpdQwKrOHDZ41tYMMFd5w5Z/bs2XMfYljkrNn5502sIaKord7o2ePqB6piKNt5+owe5Qw+itoq93/zq32Xo5/GxDy5E7lx2cT6oQaVTJUGzJzapoSgBg1tOmHO8BoWDjS0xaTZg6qYUDS4wdQP9/xzPyYm+uz29/uVNRQCaiegHFOImqZXl5x+4QasnHl968BygjpC6S7vn7ibKQNeTrv50+DSlFfgzLNpkpx9870S/GiDHY8dsjv2UDcDIvC9GEnOzwDLZM/u+3PNGNp4+2OH7Hr2YyOKqLonVfYIeNmzO2qyASG0/OmpS3Y929dY4GeffzldkjKvLrX7InPtKfvuZjNAu5/9vaxNMFWh4sd38mQp5d8RZn6m3sfj3bLj0aaaVIlxwMlEt5x7d01l6kWoOD7yuRu8s+wrqxqZ/D06iaGiw1UwNdsSKwHH3EuLKwr8aIX55zIZ8M07NyWUcrGuzgaPzu/s3JrfYeAxdoTghS7OA3XTR2AibjDIz6I6erPtlkHdrK7UC+0QBZ4ftqe8QjY5wKNzZ5DPCei644kLeMopR8aWprwqHJHBY/oCMy/D5CTwyC6HKxDHpoNH6Y+aHmiJ2VedoFR+8XUN6t+F/A5YttnCjVb8MAF4S5fG2HhZ+px1gYqOQy1EHkPSwavrLV7W4wy83qjmJeQaqH3U5C3sCAOvF0p6iUgEtfcYvJQ7Dd7Pl+ZEJ+aCV8dkHyM02JEG/HP/GhTAx/QRA69JnXjVfwjed1lwtZ+AV7bZRggRWx93Ak92a4jBnxOnOFDxbQlvQ4dLDFTM+boi5RKyMg1UjhltUibuB+StME6dc8G7c66XRqmqXQ7x1icLvLtGeBmUp9oRo5cheQh5MOUTegqQ56w+xTL2OaibubEyl8oPAbnOxEdYwRBpTVDC24CMa0aIceQz4J21wOy/0fbPASuvN/GyTIoDdeW/GlIOgZ86QfWMyUZFYVcwWRGc5sgI2CJ4qpek2sVgb6/JCLbJS4dU1X4yeKJLGQK+NPCp8QSTUNmXlFqfB2rLfzemHJqmYy6W4mP5GbDDUIZNGHk6MU9LAf6OhSZ/TWhzG9A3axHOQatyQfUbEVSROCsXNJjQnSqxX8XktOe0gGG2i55sZ1Xba/D2PgYOC55CjzOVXGOolzdQm418XnmKSarqQyoeZqDBB12oOtfK8AnYixqJMu/DwBLj1HRQM2ey6JfR4JkvAJ00gHIK+tINCpkkSTJTAHeaKqr9EDR5tnwBmI/a4YWMzVYpsSvx/h7qmBfS9LKsBsv7yEQKSjXfUekPUMwkSZIVQVxfWgCsuFEo61HUwuEp4FWWJElmSiC1I/W/hPITLrsBnTpGJHwDvnADWnrwy/xOLdqP+uZMMg7+LqNkulMBy4q5c/Xy9Sc5StxviT7CMOpmjiMvL8+Fc+Xm5XdknetO1SIlh67dvm3btm1JqJubtnlc3txA/ueVPgYKpei9szu0aDV801WHAohrV9BG8ot8Ah7zru6Z1L5FRJ+Pz+cqgIsV/J13goKxoWXrjvhobywDfNwQkfAV5zgA644cEEyJR6HavPsMI31uUjDXhXA83Dytb/0wk0DFkMZjd2eg4GG4jyDE1qhlRESzsckY99RmEflbNrAQLC+vlt8x8iLC8X+W5RsZJ50dbafEo6Hdnhwc3K3sqzynfN7KSIlHY/v9Thz7yOjfQG5SIjYpNdvNQCE72VggnDvEATZxio1gaam1LgSk9lbQPM6T++KqBkEiJUhj0+MMI78l+ArPNaIxzhaEq0rWU6jF/gMdkQXotCUhlCCN3W4xFPvZ7MPk4/VEgrVOTkJBQgs/R232eGlJwtt+HLDPe4lEoXFWBgIig3Hmd7MAWMq+PqEiUVziOwz8W8qHtSw01LgB6KQxRoKnNf9kGHCN8l3yvnJEoWFMCgo2WPw318U3K4uEN52Si0nqJRDF4qw8RNYwHLH0/XrTsiYWwrVGNOZF/aIPw0cSKnOykSiuex0Ft0v7rDNViWLTa05U/Kt+GzvVtQzhX/EiIN2zRcLRslv2xo6YcYQajSLhLCzF5Iwq+mgQDVj3cgtRTvsnotgc6qPiulBlJOxXFFsm+mvgSLn4cRsbJ2GOA3MimHBtGOsN4hspULV2MoJ9JRR1iG9JqFNlCE/jchcGrof4JvlTE+HZMh4Df5X02wBATj7Qz8al1FlAOrsTvuIG2Zv7Xe1YLiJgu6Goo+xFwOYNolxI1WsoVx/qkxJaEa7Wjaj0Dv4cAEvfXk/gMDIb87uZE2mb7A1+s2pG/B3zQ5HHwCzUGTvhK6ySMLDd6JOOBvEhgx0YtlDwZxzpmcis7Jw8l6wIQL450KjI8j1DOIcT3tbfEHE1tHMEs89YxCF8BVi2VOREIhJQ0RV9kftNgVOlOxg4HOTHyGs7dPHerWffwaOnLv/pwmOHAoAX44xKakQDMqYkN/KR7C2na1FUqX9R2Y0I77ATKKmLL0prTzhb96HuVfRnFhDFgtVea/J3T904iJ9gUNAzA3Nc4Dc425v0niqCyRYcFmb3WOJ4EUrzeNSFUG70fYaB1wUf9PgVXsLbDJPQxJ9ZpMyjueHKJwwFz3vg6McSQn6PCtzrxnuD/ZwEW9XG7Ycu3brv+MnTf/39919//XkqrQhlcA7qMwM3MjgLdcjqg/4uwYu0y8U4xvpfhIgRFxgKTpVGGY8Bkh17+x3uX2Yh/hWV0YDKw5b/fD89zy0D76IOYbWMmkn51YpG3Q71QbtM3OomYWCF4IcRWvcSLm8+xQSex2j1kkmJWHnEjw8doHJRh3kvYF09Cf8S51ExFXzQGoFbrVjUVwZ/jNDmsSi4WhZT4ob2bthwQsXF1yRQv6jDdhqVXFOFwJOo5AY+6AN+VR6jtpj8MiIsYqi8GZiq0dq7ZkUFjLkugxaLPP5EPQpVwXoMleKL3qHcSt9BbTf7Z6TMcxTstyBapWjvjBFT7usc0GZRR8g51INgFYzbUHk9fdASfmUKBXQ/7nlNRKNEzWVNIMhqvzFQzmS3y+GRFaGcRz0MVcGwBeXo7YOWFm7IZIbK6o4odRuVdPum6rf/GWtAlDzKQKEj6t8Dn0/u07l929atW7e7UHQS+BfqQYgKAcdQKQ190Pv8ShcOBuOcUxD2Gxj3ZFuA6jYjQRo+cAM69+xb7UIEghSPFJ3YTqHiq6pgO4FKbuCDPhC4VYtBbfPbWsso9l9EwBnUKKLt7smAlfa3sVKCL0oxH0Q5u6pgP4d6VskHrTVwqxWHWmf011op2EG9GY9j5KXasu5jmMwlAUSxeLToRPiYYWAW5Vf9PupumA86FcatfgrqU9FfG8h40S9kBJwQNdU0EZDpY0Wi3HC6IC0oZJHhuag1Ir9BWajjVh8UXZ1bZwdGXkj8takKtiPIgCzM87KaWuhESMtFwtF4RhO5HTmt8B+2cmqQ4GtaJqL+Deb3DkMtFTjdKMsnJFIbaR14iSsBm9bRX6M/AlpaQZB1XmCcw7RkOAjIqIqEZ8gdTTgH8aG7wW/YZ+bTM8PXlD6DyqzLLfgIYOUuhFNMVT4VrmlDWiZwCjiEelTVX7PdwznGYwKPYOCgUUMBlxFsK+XSPFsbI/gE3vYfDlv4vC35GvG/KHm+wKtJHCqmMq/nNfh0SNYGnA7jVOMR6q8wP432deLS22HIQjcmt7OGyjxESCsJTzoDuAWdw7hn82mco84rj1FtfRCZi/onkIvlMPgaMiATAydDONG33KjtJsyryZjkplzoAlkjaV05jXShVoh+mv1fwD+qgqoTjYHfgrRTPhrzLpeA4/wMkRj2s8hDWAPqVLmPcff0RaPdmMQGXCISfE/ZS6isHpwqnAesqw/F1HiKcU2nPEqcBI2wTVYugd8BNqcX8c9M78oKvjehTOtkjGuJQQUhKEjgtYoH7Z7Nj36HgdiKPGo/V6nkFQybSH1Qr2wMmyVwsGyTfY/4loSBw3Yu4usO1LUQgi13BwO/BnGgk7K1AgndedCeaaiL5f0zy+R0wDtmEnyrOAwkDTfwMjZ698ihqYGIUvcRsFfkEBYJ/Mg8J0Z6k4NtN6hkP4+Br0w+qFYUBs6X5jA0HXwPqfcQ5XzLzKN9DGDlWRRl/QGV3JFD7WugGfZPFQ4VTwKWfWL0x4yvrksHhbcrK7BskjGQMCuQS0CLL6NlgOw3BW/Wy5j4JspMb7rVaJGCgUdVFZnmOdQKPIo6V8IH2faiXDNFRQ1ugS8yrHRjIGWoqCz8DENdL0XQdA7DsO9CFNl3y9oBaXuYoqAv3KiUlsSvWcBDsJTs8Fk0A4Wu5YIC0ugBCnLW1RCVGEuP+C5Ohvz3qngzHMKwPWYlpnEpoEbJCyj4MVSBdWoqqGVYwzC5/xF8D10qYeBJRwFHXz3DfBKpfgkF0X2MSmpFyoB1DCMKW6ZhIHuxWUHptQ7QEDi+Lqkg6J0cQO8J9G9W16yNrVOvUavOAxfuvpAKyq9UJ0rFOTkokG8tbRggUA9UMFXs9snlXPCa3MwbmeFAQO5cEy5wbjKoQt92o6QdFShCqPxpJqhGRjsxcKdHoCgIoskWIPoMUi8GBbe7GzGW4XcZ+CZhaDoKns+zU4yp3RkZsPJusxLbYRSkLg7CGCIOuUBT4NofYUKIVT/PAXRyB+LXQNbzWHRCSnq2gwHP1NFUEQnZKqEApLh9H4xtVrNm3TYTP/j2TjYDZFwDRP3nGMheU1HwZq63IQfUIbXuo4D92TNMzEcDqky/IAMAyCo1iUdB6uFPV3+64dtDB1ZV9hnmrxgKYl+vavZgLNFxdw4AgMx8ELF+5kaB49iwMkYPQlDTbxIAf60SUUoH56EgZ2sTG80nBNdf/YwBAGPaYPmAxW/rVjpAJMQYXPf16xKg2dcWP0ereSsthGPVPxkuvzvl+bP4TAmU/haIMK6XMSDfWBRht5hMAVX7fBPDAADkBBWEFS4UQOaZ90f06Ttk7i+PXJA/8Xemju0ADin/VclXkGZPceB+sHVS/94Dxn1+OQPyu4+m+yJS8mcZBZB7/bMx/Xr3HfbaqURQ+KwDUR4UiQMWf3j+oN79Rrx9Ko4BALCrUdq4+CIfAGTd/vXdGbM++/OFBAqvVSf+x60C4PgyiHBtcIEp4hzXk2DrP0IBsKwrh37+JfKxCzyyP+fK/EiVywoAQHa7JQaeXTPnyerQqU4+IH9FfYVxuYQDACa5JQae2W8tY3wSKX9AxgGA7Ha7JVD8oj/lQLpk4PJLbrcMXmM6/6SNRWOSPXFP7kULAzkfBhG+tPYfshaSJwgoYV4uTvHdur3UIMPTFKHd68wLGGY7B1LhKieILsHjCIeTGiDl/1aEv9Wg5lNUVX4ngrRGSn0vKeHKHnSnhKfhC6YInTo+cK82XjPOSlcla7xA/M/AU5p7MdVCuJfd6lLv2UiR4AN3Sio8aEG6YX5WZlrp4OfeYiOzZMxmgYMww80ptYqnJRKCbSCKTbsw0gxepOVTFaKakmrRmITKKDIBtcesORKy1qWafLI+4Rz6G+OXMcNg+RE1TAVqnJKiQs5Mkfih4mtMW9LB+pSoaJkdr5J0qAElSkvtdnO73oSQJi7El4IiYnknm1fepwGE9HIinHMJz+BdjM+dUE+9sxHOQcroOIbI7MCNtrzL7UJ9QuxnMeesuDbpCHk81R4xjIhVKee/pQj3EvsZr7jRBiJ8zBBpjdUgYt8YbtkTBOKXlr6kJdeZgVaiLg3/OVcF94XhNsLR9loyn9ytlQghQfe8JbQnHA2DHnJhD4cZCCG2U4hbVbgQ+26Zh7yaeA6NRJwOUkbK3kT8GsyNkCo/y1zyvilBCKHTHd5ckwg+8GfEmbKkABBSfVOGCu5/uhiJirb3MrlIJxtRQkjjp4hdJlUIrXfIzYXd7kaJf0qb3NSK8+n6HjZKVDd12J3CuLCMI8NDKOEqttiXp8xxur+Z5O+X4SlrkZEHoXV2ZiliCR9WoyR/w/teXgygfEjIxznKXN/avZBmNz2xu00IR9oz2RO73ICoGTD3CVPkjOxsIPmDNro8uTZbFZA6F708bkcLBhGbfhMncWGZh4cGU6Kq2PMflyL57uQQkl8cn+rlYjWiDiEB/7kqKWJxq8pR4q/SCt/EyGq5Es/+sKx1CSPRpqnyjF9iZAXuB7/MrxlACfeAjluiJIz8ZHv3IEo8Ct0jcwEc50eaCWdLy033ZEze+XdfMRDPNHxrLAOW/H0LgfA2dfgpEZf957gA4p3W+y6BgRy7tTrlQYTGv6YwkJ+vr05VIUK5pX9lYeSYnV1sxGvQnCtOAMfFaQFEKa2xI5YBS9xTm5ICQoix/Ojv77sVsISjr9exUqI2DR62L45h0o5OKCkQz4ZuxzIB5CdryhPVCA0b+msCw+T8uaSygfizxiqdeqnbvW3tELNINEwtVTtPXnv6xr2oqHvX/vluyZC2FSwCUZWaKnSesf3c7aioO5f2LupRzUyJdxrcvEePliUEwt9UvtOs787fiYq6+fe68S3tIsGaa3Xp1bWulahILbX7v3fs2r2oqDtXTnw5tnmIQNDW8K49O9c0E97Wel17daphIqqLQU1HfHbyRlTUnUu/Lu5RzUSwYunWPXu2KikQjuZXuvTqUttC+GqEEGqu0H7sJ79fv/fg/v2oW//unNktPEAgmqTWWn3eOnjlXtS9a5GrhjQIoARJAxv36NWxioFogBBqCe/3zqGr96Ki7pzZND4iRCSFb2oKDLXb7fbQIItAtEnNwWF2e1iIVSDap5bgMLs9LMhESUEUbaF2uz0sJNBIia+mxsBQuz0sxCoQn6iZ/NQQGGovYbfbw4LMlGhaDAix2+2hNpFokld+MSDUbreHBZso0Zdq6n+lGrrVYv8Vl8pyUP9n2IpaSHR5woeYzB76PNI0FfGHXacnLnV4edqe6PSIcdwdCYDlHG8t6PaIUKb/5Gnj2wRSonMUwl6p5xN7xPojesmy71xOTPaJabJuq+oRF/henZVlvQR6v0bPQPf3H6f+bzbo/2Yx/d9/nD7puKirGpTjk34iuupOqRi5gDMEW6+vqvsCkfbBewX7X4T7DX1VxduInGqkQBsOIJwj9FWBxxHQv2DZoxAZEfoquhbzMS1QrdMRz8rqq8hkN+K6tUC9LSFOGnVWLZIReREFyXoavLM1RGdd6iICPhILUIt0RHY/vZXhK0x06QL0tYx4WFlvRQbmIORJtMBUiwHv7FtBd1XhBgIulSkodJWEyBtFdNfiRxh5tlBAqj0D5K3y+ivSOgkB92oVDMMGGSGtEXRYgT9j2PqAAtErG5CxTYkeu182AjJHCQWgwjVAsp0mXVboYQzcb6o9206Gie9AdNm0bwYGIqtozbTEBUh5o1mfRQJ2oaRvy2jLMDEDsI8aEb12oxgMuNeV0pJhVBJgnW+Iui1xgQsDrl3ltGOelAhYdqIM0W+H7mcYcB+oTTUS/Fo6oJ93IHruetEoYDe6G7RAq25zADpvoUHXRQdmogCSlpegqpn6XGKAlrcGEX23uFTCgfxvL5M6Qs11WaDwj/JE721cy3AAeftaGvjRSstegNIbdYn+O2CXrADAETk0hHIxNl0bB4qjXiV68MDtkhIAd8zmflUNCsJaLTufw0DxvVZUF0aCNzoVATBn3Jm1Cwa1aFS9St0mXaesPPQwRwaON16lRCceuCxbWX4mO3OyMzOysvPcDPj+UZMS3bh53FMuqrs2lyJ6crHNKUlzsXNsRGde/oMkbbki24hEd27u9ptDO/LDRSWJLr3UjMtObbC4rxuIRKcuVJp30aGe/GxDGxPRsQvlJx5OkFXJubS8kZno3QNbLTuT6OIjZ9zZMrS8QPTwNLjZ3B2XYrPcMvPCpLyk+/uXd6tgIDp6Q1jtHpOWbfjx6LFjxw7u+GT+oKblLKTY/8X+L/Z/sf+L/V/s/2L/F/u/2P/F/i/2f7H/X6IC;imageBackground=#FFFFFF;fontColor=#808080;" parent="1" vertex="1">
                    <mxGeometry x="306.95" y="377" width="83.74" height="36" as="geometry"/>
                </mxCell>
                <mxCell id="31" style="edgeStyle=orthogonalEdgeStyle;html=1;strokeColor=#6666FF;strokeWidth=2;fontSize=12;fontColor=#808080;" parent="1" source="27" edge="1">
                    <mxGeometry relative="1" as="geometry">
                        <mxPoint x="185.56500000000005" y="197.65517241379314" as="targetPoint"/>
                    </mxGeometry>
                </mxCell>
                <mxCell id="27" value="Obtenção de DataFrames&#10;do pandas" style="shape=image;verticalLabelPosition=bottom;labelBackgroundColor=none;verticalAlign=top;aspect=fixed;imageAspect=0;image=data:image/png,iVBORw0KGgoAAAANSUhEUgAABQAAAAIFCAYAAACNjlDKAAAABGdBTUEAALGPC/xhBQAAACBjSFJNAAB6JgAAgIQAAPoAAACA6AAAdTAAAOpgAAA6mAAAF3CculE8AAAABmJLR0QA/wD/AP+gvaeTAABik0lEQVR42u3deZwcVbn/8e9TPdPVk4VkpjuALBoQBAUERQVlC+6IIMl0SwBZXMD9eu/vquByL1Gv+45eFdwQZLNnEhYVriJEBGQRRRYVDBKULWR6JmEmme6e7np+f2RYwpplZrq66vN+vXy9NCbdp546dZanT50jAQAAAAAAAAAAAAAAAAAAAAAAAAAAAAAAAAAAAAAAAAAAAAAAAAAAAAAAAAAAAAAAAAAAAAAAAAAAAAAAAAAAAAAAAAAAAAAAAAAAAAAAAAAAAAAAAAAAAAAAAAAAAAAAAAAAAAAAAAAAAAAAAAAAAAAAAAAAAAAAAAAAAAAAAAAAAAAAAAAAAAAAAAAAAAAAAAAAAAAAAAAAAAAAAAAAAAAAAAAAAAAAAAAAAAAAAAAAAAAAAAAAAAAAAAAAAAAAAAAAAAAAAAAAAAAAAAAAAAAAAAAAAAAAAAAAAAAAAAAAAAAAAAAAAAAAAAAAAAAAAAAAAAAAAAAAAAAAAAAAAAAAAAAAAAAAAAAAAAAAAAAAAAAAAAAAAAAAAAAAAAAAAAAAAAAAAAAAAAAAAAAAAAAAAAAAAAAAAAAAAAAAAAAAAAAAAAAAAAAAAAAAAAAAAAAAAAAAAAAAAAAAAAAAAAAAAAAAAAAAAAAAAAAAAAAAAAAAAAAAAAAAAAAAAAAAAAAAAAAAAAAAAAAAAAAAAAAAAAAAAAAAAAAAAAAAAAAAAAAAAAAAAAAAAAAAAAAAAAAAAAAAAAAAAAAAAAAAAAAAAAAAAAAAAAAAAAAAAAAAAAAAAAAAAAAAAAAAAAAAAAAAAAAAAAAAAAAAAAAAAAAAAAAAAAAAAAAAAAAAAAAAAAAAAAAAAAAAAAAAAAAAAAAAAAAAAAAAAAAAAAAAAAAAAAAAAAAAAAAAAAAAAAAAAAAAAAAAAAAAAAAAAAAAAAAAAAAAAAAAAAAAAAAAAAAAAAAAAAAAAAAAAAAAAAAAAAAAAAAAAAAAAAAAAAAAAAAAAAAAAAAAAAAAAAAAAGlnhABoH/lc8XPu3hGnMgUe3DxQL5/L3QEAAAAAIJ46CAHQRlwfNllnnIoUBX6+JBKAAAAAAADEVEAIAAAAAAAAgOQiAQgAAAAAAAAkGAlAAAAAAAAAIMFIAAIAAAAAAAAJRgIQAAAAAAAASDASgAAAAAAAAECCkQAEAAAAAAAAEowEIAAAAAAAAJBgJAABAAAAAACABCMBCAAAAAAAACQYCUAAAAAAAAAgwUgAAgAAAAAAAAlGAhAAAAAAAABIMBKAAAAAAAAAQIKRAAQAAAAAAAASjAQgAAAAAAAAkGAkAAEAAAAAAIAEIwEIAAAAAAAAJFgHIUieWTq6u7NzbMfYFWysdueALh7mDgEAAAAAAEwdEoAJ1JkdO8TNz4lbuTzMvkE1/Yo7BAAAAAAAMHV4BRgAAAAAAABIMBKAAAAAAAAAQIKRAAQAAAAAAAASjAQgAAAAAAAAkGAkAAEAAAAAAIAEIwEIAAAAAAAAJBgJQAAAAAAAACDBSAACAAAAAAAACUYCEAAAAAAAAEgwEoAAAAAAAABAgpEABAAAAAAAABKMBCAAAAAAAACQYCQAAQAAAAAAgAQjAQgAAAAAAAAkGAlAAAAAAAAAIMFIAAIAAAAAAAAJRgIQAAAAAAAASDASgAAAAAAAAECCkQAEAAAAAAAAEowEIAAAAAAAAJBgJAABAAAAAACABCMBCAAAAAAAACQYCUAAAAAAAAAgwUgAAgAAAAAAAAlGAhAAAAAAAABIMBKAAAAAAAAAQIKRAAQAAAAAAAASjAQgAAAAAAAAkGAkAAEAAAAAAIAEIwEIAAAAAAAAJBgJQAAAAAAAACDBSAACAAAAAAAACUYCEAAAAAAAAEiwDkIAAAAAAJgIs3ML53Y0m/mWFaCzef/A2sUPcCcAYH0kAAEAAAAAEyITNT7lgY5rWQEamU9K+ix3AgDWxyvAAAAAAAAAQIKRAAQAAAAAAAASjAQgAAAAAAAAkGAkAAEAAAAAAIAEIwEIAAAAAAAAJBgJQAAAAAAAACDBSAACAAAAAAAACUYCEAAAAAAAAEgwEoAAAAAAAABAgpEABAAAAAAAABKMBCAAAAAAAACQYCQAAQAAAAAAgAQjAQgAAAAAAAAkGAlAAAAAAAAAIMFIAAIAAAAAAAAJRgIQAAAAAAAASDASgAAAAAAAAECCkQAEAAAAAAAAEowEIAAAAAAAAJBgJAABAAAAAACABCMBCAAAAAAAACQYCUAAAAAAAAAgwUgAAgAAAAAAAAlGAhAAAAAAAABIMBKAAAAAAAAAQIKRAAQAAAAAAAASjAQgAAAAAAAAkGAkAAEAAAAAAIAE60jDReazxetk2idmxbqjUuvblSq4eeaEpZ0i+dUxLNpnK7W+b3GHAAAAAABAq3UQArSzyKMOmW0Vu4K5ZnB3AAAAAABAHPAKMAAAAAAAAJBgJAABAAAAAACABCMBCAAAAAAAACQYCUAAAAAAAAAgwUgAAgAAAAAAAAlGAhAAAAAAAABIMBKAAAAAAAAAQIKRAAQAAAAAAAASjAQgAAAAAAAAkGAkAAEAAAAAAIAEIwEIAAAAAAAAJFgHIUgel6+R9M+4lStjGuXuAIijHh2zhXXVZ3Z4FEYeBIFFkSSNWedYZrQ5tFLlEaKUHlvp2OlVNbO5GaOdagQzPJNdU1tj9U6NNAZ08TARQryVMrPUuUU0czSQcjZtuGN0hc5eQ1za03YqdQ2rM/f4P1utc1dJcqKDTTevY5a2mSlJprW+SheuIibYUAUdPjOT65xTj6JpGe8ILdOcHsmyijTDZZ0W+JAkBbJaM/LBjs7swENrHqhISxtEr7VIACZQpd53kaSLiAQAPDbQnd3ZvVsmE+wlaWeTdnLZ8+V6jqSCVAsVSQ2ZJFfkJkkybygKpbyKVUkVuf1LQfQPyf7hkd0WmG4eqO32d2lRRIzbx1ydkBvpHN5dGb3E3XaStKNMc+XaWlK+odGuDkmNscy6f9AYU0coubKP1IUBmVbI9U+XLwssWNY0/SU7mvsTiRZMvpM653QO7eYWvdAD20OuneXaRqbtJG0teVaqS/WMpDE1wjHlVZSkhyWNShqW7F8uX2auZZKWRfJlQ/Xgb1K5TnynlG0ZHrljw6OXmLSLWbSDK9hRiraWLC+pMCoPOrT+bRm/n2vH26KVct1r0t0u/UOmv9Q7O/88PHzeAOFNdxsRZfzFJu3kkXY0s7kuL8hVkCm/7u/VH00JjNeppqSVkg1IvsLky92DZS4tC0y3Mt5Jl56uhdsH0dhe7sGLJX++TNtK2k7Sdi5t0XApsIzcXO7jL5aaZJI0Po6OJJmZmo0x5cOCpOJKmf4p1z0mXy7T3yKz233Ubh9SeTVRn3wkAAEAiTNHpRmN0A8w+cHmwQEy31NS1yPrJTZh2URO0rYy31Zu+0qSmcsl5cPbRqTi7+W6yjO6YnDUrpfKTe5CfMzWEbMz2Y5Xy/xAyQ4c1sgeknWsVxF8o+rCdnJtJ2lvk8ndFbjUCEebeRXvkOt6BXalBZnfDKw9/37uADZ3Mp/PDR1gig5yt4OkwVdEUpdkj9Vb26AP2mL8P1tJvpNJBz/y7wKZ8qGvlYrXyHWlZ2zp4OjKG1mtMQmJmdzAK5tRcJCZDpC0T1PNLcweaYZsvDHaoBs6TdJz5XqupL39cW1Ztj6mfFi8T7LrXPpdEOnqgbHd/kTyJplm6ejujmztIDM70M32lw/uGUlZ+XgTYZI/0lg8c9XKaN2PCFtL2t1lkj1WK/PhbQ9LxT/J/PfuwRW5WvWa+3XJWu5AMtqmQm5wP5deL9cr5NpLUSP/SB2Y0CG6a866NmtdH2YuWejqUfEf5rpWpt83o+Y1q8Y6bmM8PfEsDReZzxavk2mfmBXrjkqtb1eq4Obe295dZfbX2BXM9fFKve/zE369YbEuqTNWl2o6f7DadxS1Ea1WmLZwG282jpBsvuQHtepZMWnAXb80s/6Bmi5jRU3r6kPUbLzVZIdLfoBa96PnX2S60Jq2eGCsfBN3BhtiKx07vZkdPUyBH+Fub5Q0qwXFGJZriQX2o4Fq+Srxyukm2UaHTatnw8PH7+UbJM1uUVEekvsvXcEvptX1i3tVnrStefLZ4k9kOq6Fg9NPVurlzya5XvV0LdhOkZVMwWEt7OPqkn4nabFlOi7kB6/2Mmd6aWtvREe47I2SXi1pZsyKOCzZ9e5+deD+i4Gx/pvohyZknpJ8JACTfG9JALb8UkkAto1CrnhB5HrZlHYy5u+uVPsvn6zP306lrtFc1CsP3jGe9IvV4VYmDbh0QeR2+lC9fCu1cLKVsoVs1OtmJ0h6jdatZohTfbg7cv0kCqIzV1UX3zOpz3tY/L6bXjKl1+f+qYFa/yWT3vfnijdO9Rh2qq6tu2vBfpnI3u6yktat1otLb3+X3M60juiHA2sXP0BbswGT69yCA6MoeKdM82M5sXa/0M1+Oljb/fKJXhlIAnByzNUJueHcyFvlOl7SvJiNeSKTro1MP8pUrTzZeyfnw9ISSTOmtB/IZI5v/yRnKZPPRQeb7CR3HRG3eeWzWCn3y1x2SVCvX8aezJuGV4ABIC1c25i049R+afCcyfjU2bmFczu88aFR+dvlNiuuPwi6VJD0/sD8/fmwuFSub1TqfReLXzAn1MyZRxU6a2PvN/N3u+w58X0EtYOZFmU8+O98WLzcZV8frJX/bzLqQyS9zFx7Te2cO8hPUSD31hQnACMFk9h2LgoK4a2HutsnFGmfeDYO9nyZPuPN4L96wt4zOzuj/1oxsuQhWp8nTa6zPTkdK9cHI/c9Y7zUYqbMjjXp2Hx42zJT8XtjteyPVuvcIe5h/BSmLXiOR8EHhn3kxPHXJ+MocGl/c+0fhX5aj4rnmWe+XqlfMEkLNfzNU53LsGZzWjuPk7JjY/8h93fJbcs2HYTOeaTd8jA7mlfxMrmd3V0f+eUyXVqjpdgwJAABAJM5UZ/Q19a6s70vzgT2CfdGr8dsddcGmCfTvHxYvNXdPjtY363MfkybORKcXtq62fAPW33s3bKpXQmwuRMlSa83+evzYfF2mX+5Ug1+OpF73QTSLLLM8W3L1jmpsxBW3um69eMu275N3svJmuykxljmrfls8csd9a5vcvDN+Gr00N8l+UfH9wdtJzu59JWOsH5qXsXvZjo6v/bQmvNW8NC3Xk/Xwu0tapzsTb1T6/afbRczTDpR1nxXT1j8pQf2haHR8tUT9eHb6LBpNfIYG2TmzPn5cCzzQa+P/btas5XEZOmSNF/m84fC6avy3nuJAp1Vqfb/RvzI/qwDUAAAJmnS7BPyCtvs3MK5PWHv6YHZH931VrVf8u/x9jDz8/Ph7TcWcsV5VJJNG/zns8WTo4bfYdJ/Sm2V/Hui3eR2Zj702/O54nFSaULqtlvL9hlL5oDZvHsCP856sqUj8+Hg7S77rmTbt2FIZsv02UY4enO+q3ef9NaMRUE+1/u20TC6Q9JpUtsl/9bLFUj6aLMxdndP2PulWTq6mye/NeaoNKOQKy6yqHGnpPervZJ/67V1Jh0aRP67fFj6daGzd0K2oalP65xFLXk2pWw+W/pEtp5Z7q5Tlazk31P0R3as3H6dD3tvz4e97y/o8JnUgacZzxACAMDkDf02b8DRo2O2KITFr2W88XeTnaT2Tvw9gb/UXVcWcsULtpoxf0sqy4YphL2H1cLwTpm+oFjtkbbZdpHrJ/mcX5fvLL1is588F4PfiXxaJ2gFYCE88gX5sPhrMz9f0s4JCM1OiuzqfK74BemkzjTVie5saY987vbr5HZ2myZxn06XyT7Skasv6wlLH5LmsdJqCuVzxeM89LvHkza55FyZv9YDuyGf6z2nMG3hNpv1SQ0jAfhMbVPXgv3yof9R5v+j9v6BdFOGPy+U7NseZu/Nh8Vvzgl7d6ZGrI8EIABg8oZ7m/GLYyFbOtrC2t9c+g8l+FUPd721MZa5rSfb+1ZqzNObpaO789nes1x2saRtE/zQvEyB/74nLJ6xhUo9m/IRc1SaLl6PmuA5hW3Waqi5OiGXD4tfdDVv07oDapKkQ66T89nBpen4MWNeRz5bPDkwv1HuL09wW9Rj8m8UwsJN6V7lOTUK0xY8Jx+WLpbrJ+P7ByeyJZXb0d5s/K0QFv9zk5PLGZEAfAo76ZAwHxa/HUTBVZJ2S3k4tpD0b5Hsb4Vc7/nd2d4XU0PWIQEIAJjMod5Gr9DaekZpTj4s9rv5OZKek5JIzTGzC/Jh8ZLN/WU8ibrD4iEdYf0WmR2blvGZSSd2hv6XQth72Mb+46iLydEk2OSY9mR7d3s4XHOdpI+qvU5c3Nj2/lVjY5nfzwlLOyW2LcqW9sjnCteNr0AO01DxXXqxIrsmHxa/KJWyNAUTrydbLHkjuFXyw1JyyTNd+ko+V7imEJZ22eg6GbEC8El1qGvh9kO56Vdp3Svj5HgeN55ytyMDs5vzYfGinmzvbqkPCHUCADB5M4eNG6R1h8VDxsb8VkkLUhqxN3uzcXM+V3wNlWfdr9mFsPj9QPql2ntvrU21lcsuyofF787VCRv8Kpg3SQBOeFOmTdsDMB/2/puZ/cHke6YhTibtGMl/252dv3viJthh738E5n8YP4U6bTKSPprP+bWbkrDB09QpHbNFPiwtMdPPZMqnLgCuV7j8j/mw+L6N/Hf0cY9TyBXnWdT4g1yvIBrP1D3pcDP7cz7sfX+aA0ECEAAwmZ3Mhg7SLJ8tnhxIP5e0VcrDNkeuy/LZ4slpDsLMmUcVhsLp/+fSuxi06j0PhyO/3yrXu+MGTtWZHE34TfDZG/P35+qEXD5b/Ilk31Si9vHaINsEQeaq5LxyVcrms8UfmexrktK9As61t8v/0JPt7aVV2Dxb5Xp3tLB2reRHpDwU0yT9b0+ueN5WOnb6Bg4u6ePGFcLSoe66VBJ7SW+YjJutTfncDACAyZorPPsgbY5KM/Jh8eLxV6rol9bpkOkL+bD3O2ncgH125/w9s/WxP0g6iKqwjkl7NSK7IZ/rfe2z/uUo2oKITfgdmL3BE7JpC54znBv5rUzHpbjx7w7MLilMW9DW2zhsNWP+loVQV8j0dp6BR80ws3IhV1y0rmnCxirkivMakd0g9ml7rIV1LWyEo7/fMjzy+c/2dwNWAEqSerKlosuXKH0/Mm2Wpmxpmq+fiRYAYBJFzzhI23L6UVtFOV8q6c3E6imHxO/Nh4XLZuno7rRccT7be0QmyFwt6Xnc/ydWB+Xl9st8rvTMeyEyOZoMW0iLnnXcPDu3cK43g9/yKpYk6bkeBZds8KqemJndOX/PxljmBpfvx618cmvkrlPz2eKZnBK8cQph8d3u+lUqX/l9dns01bym0Nn7smepfan/kSufLS4w8/OU5H1lJ8c9q6vlu9McABKAAIDJnCM8bSJiTljaqdEYuzal+yltjNd0hGOXpyEJWMj2HiWzPkkzuO1Pq1PuP8lnix992sEdr0dNyph5tm5+xklnT7Z3t4w3rpG0M+Ea59q7EY6e2W7FntNZ2iuTyVwhfoh4li5ex+XDwpLtVOoiGM8uny2e7NL3RNLmmWzlgV3ZE/a+4enbFUt1AnBOZ2kvmc6SRPJ94/ukpakfzFALAACTaOZTrZrp7io9N1L0a5N2JEQbNGJ5aUdY/80WKvUk9Qp7sr29bnaW1m02j2ebdpu+mM8WP/k0kyMSgJMhl5v9tBOysLSTmV0uiVO8n6zYkyu2zSu0szvn7xmZXy5XD7dug7x5NNTFG3NQURr1hMV/H9/qBM9uhskuLoTFp3w7xH3j9mRNki2nH7VVFEQXS5pONdmE0XSg36Y9BiQAAQCTybp1+8z1BsFdC7fPRL5UsrmEZ6O8pDPUr5O4EjCf7T3CzM4Tv2Zv5NOlz+SzxY89aYBrrACcDJ3N5lNOOvNdpW0jRb+WtDVRepqq6vp6T9fC7eNezu5saY+OIHM5r2du9LT6tSPhyJKddEhILJ6skOs90aSvEYmNknWpf07Y+6YnNyhp/ZFrUdBsjJ0v2fZUj02T9v3/JBKAAIDJnhbkHps0z9LR3RY1fuXSDkRmk6L50s5w7JI5KiXmFdlC2HuYzC4Qr0RtGtPnenKld65fTcQhIJPx9GWevOqkW6VZiqJf84PGs5qlqPm9OBewJ1t6UWB+uUsFbtcmPB/SG4ey074vDgZ5Yh/3Hnc7nbhskmwkK+c7F7z8CX+eyj4uH976XknzqBab3Er9K+37/0kkAAEAk8yizPhA7aTOjnDsZ5J2JSqbM8ny/aLQf7ohBxLE3ZzO0l4uO19Slju7Gc+Y+3fXOx3YNZuoTMKzFz0xAbgoCEL/qWQvJDobUE/lb+rJlo6MY9lmzpyfD8x/LmlL7tTm3GQ7Np8tfZxArNMT9r7BZd8Wyb/NMU1BcHF3V+m5j2tMUtfHrbt++zzVYXM6cbuCIJAABABMtsy61xF7wsFvSf5aAjIh3tKTvf2T7XwBW88ozYkCv1DSNG7nZuuU7GeF8MgXjE/CWQE4KaPmYL1JZz5326fECeYbxcw/E79TY0/qzNYzfaxMn6ib7J+R6aC0h6EQlnYx2QViX9sJGTJkIn/s7YcUrnIPIn1T0kyqwqZj/7/xukQIAACTqSOKtujJFksmvZtoTOhEelFPtre3PUs/r2NsTBeIEzYncGSrblezb/w0TvYAnIwQP27j+Tm54gFysdJp4+3ckyucEKcC5cPBr4rX6ia0e0p7217Q4TNdvpi2eCK7OL04ykbfGv+fs1NVnzoXvFTyt1ALNk+kjiuJApttAwAmu8N128MCnSwnFhM9yTKzH/dke/82WO+/vZ0Kng8LX5P8YG7hhNtjNIy+JAVMOidBMP7aWY+O2SLy2tnih/RNa7hci7ZT6Zx7VR5teVuUKx0r9w9yVzBxFgUe3n6O5C8iFhM+6jkhnytdIfdUrQD0IPiU4vkaeV3yu6Tgn2b+sEe+RmZVmVabK5Q0Q6ZZ7raF3LeQ6Xlad1hWK/rOe1ZVz1/OQ0QCMJmNxA3aXq5941cwXWX7agV3CEjbgE2fkXPAwySZaWY/m6sT9l6uM6vtUOB1e4Ax4Z7EB+4DkteIwyQMY8ZXAAZh7avO6tXNsW019ONU0+mtLER3tvfFcj+D24GJlM/e/jHJDyMSk9YQf0dSak6bntPZ+5JIOjQmxbnD5L+Q7EqT/W1lbeVyaWlj4z6ilJ2V07ad0nPl0Qsj2V7mtqfMd5c0eQfcuZby8KxDAjCRDaMOkOmcGJbrDZJ+xQ0CUqdVyb81kv4hadCktTKNSFLkNt3k003qdmnHSR1wTI0XDeeGT1VVH4t7QbeeUZrTGPNvJ2Qx6AqZ7pXbwy5fG5jWultO8mkyzZb7lpJt36KyhcIkjGNsdqFzwUtdegfB2DyR7L1SKxOA8zqCwH4kVy4B4ay5dJ+ZhtxtjclrkplMs+Q+TdIccbjJlOjOzt9d5v+dkMt5WPKVMlu1rl6pblJXJJ8uaQuTtm1RXzMjTXUqCuxdau3qv4dl+nbGMz96qHbBXZv/ceX66qrulnS39Pg9+RYF+exfd5FF88x8nrvmTWi7FdhSWqh1SAACAJJgrWTXyv1KBXadW+bvg6Pn/2tD/mG+q7StefMFHmX2kfnBkvZXux1M4fbhQueC8sDY4j/GuZiNRvQtlxXasH7dK/crPdBSa/qt0VjmziGVVz/bP9pKx06POqs7u/lukfmBJjtY0s48rm3K1C0Lvile/Z2AUPqe+c4FL6+MLb6xFd+fzxb+U6692zB0ayRdI9dSN/9j04I7V1d3u0daFD3TP+pWaVbQ2XyBMpld3aP9aYsmQykTBP5DeVuear/CzJe621Vm+ouC6I6BtYsfeOZ/siiYnfvbcwNvvCCQ9vB1+2geKIlDqCbITjokHDItbNEWOjUzfWmsmv36ap07NPlftyiq1PVXSX+V9F1J1p2dv1ugzGEK1Lu57XVDHADyCBKAAIB2VTXzi8x11spacLlUrm/Kh1RGy/dJuk/SlZK+IJWyPaFeLfPjzHWEpK526M+jIPMj6aSXS2eMxbGA+WzvEe52ZPtUL19uprPkwbkDtfIdmzSj0tlrNKabJd0srVuZ391Vem4m0pEuP17SbjzGbeV1PvXtQeTScpPdI/mwXMOSRxZYbt2KU20r+XZqwxVeFti7JU15ArAQlnZx+aI2CtWI3PsUBGdXqrr6yX1d+Vk/YEjl1RrTjRrTjZLOlqSeroXbK2r0SjrepL14vDe3Xvl/uOsVbdTH/Uums6IouGCoXr5N2tg006JoVVXLJS3Xuje8viqVMj1dvo9FOlqmo+TqoWZsusHs9MOtBTE06e6m21uGauVbW1lBh+pLbpN0m6TPz84tnBt4c4FJx0j+0o38rHtWV8t3U6PGJwyEAADQZu536ctRrXHmKl24auI/vlwfrOkySZd1qzQrCKPjJfuIpO1iPZmW79mTHTxlsK7PxK1ss3R0t6z+nTapX7+S2Rcr1d2XPtuqmk0xNFr+p6QvS/pyobP3Zcrow+5WEqvK2sFUJP9WS1oq2eVBFF0TjgV/25DDMmbp6O5MWH+53PY101s2YYI09bM72cKtdOyHVujsNVP3rYsC6fYfSu3w6q/f6aYvdlanXTAZMRpfJf8NSd/ozva+OJD9u0xvk9izd2PNCXt3jqRPt0NZTbrMzb9aqe5xxcT3ceXm4KiulXTtTjrkPwezMw6zwE+W62XUkk26Vy3Y+8/vso5g/6E15QfjFIvxAzy+Julrhc7S3lHgJ5p0tKSZG9DZLKU2PYYEIACgXTwg6fMzazO+P1UHXgypvFo1nbaTDjl9KJz+TkmfkLRNbAeLpk/Mzi08O24nnXWEtU9L9pyYD7X/z4PmosHRxdeNT2Qm/RsHxvr/oDEt7MmWPq3AP2muhYrnSX+YXHVJPzfZTwZq3Zduyire1Tp3SDX9SutW4nx6y/DI50dqfsCldym+e2ZNb2TXvk51XThVX9iTu/3t7r5fzOvDHTL/n0o1OE8qN6ekr6v33yLpHbNypc90un/cpROYJ264SPZtxfxtAZf90oLo0wOj/dev+5P+Sf2+Zbq0prr6JPUVwtKhbv7faqsVknEYlvirp3hIUHPXW1bGLPn35LFT+SZJN81R6cNRqGNN/hGXdnjaf8D+f+uHgxAAAGLO5X52Pdvco1Lr+1YrTrtdpktrlVrfdzpqXS+Q6YuSmjGNVZiJGrHagHx2bsHzJDsxxvXrQZmOr9TKb3ws+Te1BuvlvwxW+46OAjtQ8r/yyKfGapk+39HZ3L5S6+sdqJUvnqhX+B+qXXDXQK3vP+rZ5ly5fiQppmfv2OFT9U1zdULOPDo1xvVhTKYvdtfW7Fmp9v90qpJ/61XIavnugVrfiZH73jLdwCP67ObkigdIen2Mi3i/uxcHa+VDK48m/6bWQK38i0q1b1+ZjperQq3ZgHoV9u485QeJmX99sN5/e7vEaKXKI5Va+bsDtYEXyPxYSU9Z9qYyS6lRjyEBCACILZPuDkwHVer9xw0PL2n5oHGFzl5Tqfad4oEOlPyumAbtuHz2yBfGpTiZKPiU4noqrevHzVrjhZVq31lxKM7QaPnqmbWZL5X5FxTbhA0mwKiZPuW18LmVat/HV4wseWiyvmh4eEmlUu97p8veINNgDNurQ9e9ljv5Hg6H39vCk7mfpS2y6+T+4kq175RlurTW8rao3n9LpWqvMunDWrdCFU8jivTFGBfvO1ar7zpY7++PQy2vVPvOso5oD0kXU3OepV6ZvXKKv7KRyWS/0Z7RWtqoVPt/Wqn17eHuRUnLHlftlsftrZhWIwEIAIir32Y6m/uurPb9Lm4FGxztu9ZruZdKuiiGccvIoljsA1gIS7vIdEwMY1Qzs3dX6n3vmJx9JDfdcp1ZrVT7PxbI3yxpFc1A0lh/06IXDlT7Fg3qnIenrM2qlX8duO2z/sQoFrbs6bpt38n+kjkqzTDZKXGsES4/o1LXQZV6/9/iVbJyc6DW91WL7FWS/smz+5R93OEyvTKGRavK7O2VWt/7B3TxcJwKNrB28QOVWt8Rcp2i+L5NEYeW4QVT2w7p9w+tOW9FuwdtsN7fX6nZbi79h0yDcuP03ycgAQgAiOGESF+t1Ow1k7kyZrMn1Drn4UrNesdfCY5bBBcUOntf1vr76J9T/PaRWuFBNG+gWj4jzs/Aylr/L022r+R30iIkgGnQ3Y+s1MrFVdXF97SmTpWXNa3jdZLuj1VsmnrNpH9FVv9P8TspeczN3jVY63/3pp5iPxUGxso3WSbaV27X8SA/3qLA5f8Tw4Ld04ya+1aq5TPjPMyr1Pu+6PJDte7gIzwpQrbLVH5dIN2UnOCV64O1vm80qtmdIjW/QmV60r0GACBGYx7XosFa34dbsf/RJgwympVq3ylyfSJu6QYPrKV7Xc3pLO0laX7M4vKAPHNwq/b62+iJd618R9ARHMS+gG3vt27RnoP1/p+1uiCrqucvDyI7VFI1NtExm9QVgD06Zgsz/8+Y1Ym63I4crJZ/2BZt0drFDwR1vc5lV/E4j9er7G29kvaI1fhJ+kfTooNWjS35czvEcLDW/3+KoteJ1e5PdS93muKx9wNJi+FqnTs0VF9yG7VpfSQAAQDxGfC4Fg3W+z7VbuWu1Ps+Z9JHYlasN83KlXZo1Zc3A3+f4nWi7Qp3e22lfkFbJdNWrik/2NEZzZN0Ky1E+zH5Dys1e/3g6OJ7Y1Onxso3uyw2P1qY+z6T2VZYWD9O0hYxqhZ1uR9ZqZeXtFVbpPJIrlY9RNJveLIlmT4YsxHU8sg6XtOqFcabPH4aW3xjEPmrORzkidVLPVP6faaIqKcDCUAAQFwGr99sx+TfIwZqfV9x+Zfj1Md3yN/dii/uVmmWSUfFKBbDkdvrBuvlv7Rj3VoxsuQhy3S8UdJ9tBPt06CZ9JGBWv+74vh652Btt2/IdX0sCmPKzwl7J3G1i78nVvXC/YRKvf/CdqzU9+uStR21rre4dHOaH+6ebO9uJh0QoyI91DSf166HHawc6/+TZ+wwSTXhkXZx5hQ3THmCng4kAAEAcfDrSq3y4Xa/iMHaHqdI+nlsxo+ud87VCbkpH1yE0fGSZsQkDJFcxw7Vy229gm5g7fn3WxQdLmktzUXsuWTvH6j1xXjvoUWRBdHH4lKayLTPZHxuIVc6SNJu8ZnU++cG6v3ntXPlXqGz13hgb5H0UFofcDN7X4yKM2Zmb223lX9PGj+Nln8vsxPpPh7tRaZ0DGVuexH0dCABCABotWWNWvZIaWmj/S9lURTV7G2S7ojH+FGF4dyaUgumR++OzS1x++9Kve+iJDwoA2OL/yjzd9NkxHvaZtJ7K7Xyd2Nfn6qLr1RsXue03SfjU6N4rf67qFLd47+TUMmHRsv/jALrlTSWtgd8jkozJL0tPg2OvXegWk7ESaeVavlsl75KNyLTFB+g5tKBPTpmC0KffCQAAQCtFEVBdMJqnTuUlAsaUnm1Aj9eUjwOMYn8vVP5deMrbl4UjxG0XVOp7/b5JD0wlWr/T910Pk1HbKdtnx2o9Z3eNuV1fScm5dh5oj9yy+lHbWWuBTGJ9Ip6tvlOaVFi9tkaGi1fbaYvpO0R99CPUWz2lLT+djlIZkMN1uzjJt2S8p7EJY1O8XdOU1h9J5148pEABAC0cK7s3xgaXXxN0q6rMtp/vcu/FpMgv3IqDwOJ3I+JyW2ouQcnJmnC/YixzuYHJK2gBYmdxZXq7qe2U4Er9YGLJd0fg6JMeAKw2Rh7q6RsLGbz7u8fHl6SuEMOBqoDn5b0pzQ95JEUiz7OpIFMR8f7kxfhcr0RNY9TCleXPuH+Tvl2H+b2icK0hdvQlScbCUAAQKumRHdla/X/SurVTasFp0r6exzKknEdPjXftCgw6bB4DJ7tv9rtxN8NNTy8pOLu/0YbEqv27M6OWtdx7ZdwXtqQ1BeDguwkLZrgeYkdHocIm+lng/X+/mTW+6UNi+xExWXF+yTbekZpjkmvikeTow8+tOa8RP4QtGpsyZ9l/qVU9yjy1S0YOOWjZuP8VuwdjalDAhAA0JrBjQefuF+XJPZAg3tVHnX3WGyyb9JbpuJ7erpu21fS1jG45Htm10ZOS/LzM1jv/5lc19KSxEJDgY5bobPXtOlE85cxKEZXd9ft203Uh83WEbMlPygG11XPyD+W5Mo/MFa+Sa6fpuFBrzeiwyRlYtCp3zBQ77sgybHuqE77vFK90t3uaU3V0gEj4ciSbpVm0bUnEwlAAEArBhi3DNZ3Kyf9Ogfr/Yvluj4GU/wDZ848qjDp9zWamkTjBlSw/16mS2uJH8QFOoXWJBb17QuV0f7r27X4PbW1SyWtaX0YfcISgJlc5s2SOmPQ9n53RbX/H0l/BJpBdKqkxLe55haLPs4UnaJ1+8Ql1rofVPxzqe1XXPe07qv1xiD0P/d0LdiXDj6BY0dCAACY8smCdEoS92Z7qnGUm8XhNedMdqxxyBR8TxwmR7dXqnZOGp6jldW+35l0GS1KS90XVmttfdDMeLK85QlMa2rOhH1WPF7/HenojFKRwFhVXXyPpDOSfI3b6LBpkl7X8udEumz8BO/E666tPV3y5SntW5a1+PufZ1GwtJArLiro8Jl09clBAhAAMNVuH6r1XZqWix2slX/t0s0tL4j7pE6IC2FpF0m7tPwyzb8mlZtpqV9u+gpNSktn4x9PyFYGf2h5XQ4mJgG4kw4J3fXGGMT0xytGljyUlkehadFXleC9AGvZ7OsldbW+zYlSszfeMl1ac+k0pZCb3RiDYoTuOtXD7F09Ye9/sDdgMpAABABM9ej1eynsbONwzQdO7m1VHPbbWtVZnXZBmupWpdp3haQ7aFda4m+V6u6J2PvM3W9qec8QTUwCcLBrxksltXzFSuTNM9L0MKyqLr7HE7wi2czi0Mf9baC6eGma6lVUa/5YLTgRt+Vtck03SIrLmzJzTPa14XDkgZ6w9/TZnfP3pPtv6zkJAABTZm2j1nlO2i7aanaOpIdbXIwtZ+VKO0zaYDXyfWIwZP5Jux7EsDkX7bIzhFY82aclZSsDU8etLS+DTdArwLFoi/TbofqS29I3sbTvJrihjUMf910lfO+/J1qlC1fJ/Wdpe5aGVF4t6a8xK9Zsk52UCTI3F8LS1T1h6UOzcwvnMhZot3YaAIApG7uqb7XOHUrbZa9UecSllq9M65zMibHZK1p9fZEHP0zjY9Wo6UxJYzQwU8g01FHLnZWUy+mqR8tbnVhw1+wJujevaH398B+k8bEYqO12qaR7k3dlJ3XK9JIWF6LerDXPSmO98ox9P6X9zMXxHc77fib/RsYbd/eExT8VcsVFPV2lV0rzOhggxBsJQADAVA4ZlqT1yjPyC2MwmJyUBOC6DaL9hS2uW3cN1cu3prFuPazyoKSraF+msLa5+pK02vRelUcl3d/iYmQnZHLjavXJlWONaviLdD4ZiyIpvkmLTZXvHNhLUkv3PzPpilW6cFUaa9Xg6O7XSXowdRfejNpizGzSXu461SK/Nh8WBnvC4s97wt7/mNPZ+xKplGHEEC8kAAEAU2W0oz7t12m9+Fm1tb+RNNzKMrjbpEyMPRe+XFJLB3kmXZTmh8tll9DETOkAOnFJDpPubnEBws39iK1nlOa4tEOLQ3lVGle6J7otCjL7xCCuFyu1FkUm/TxtV10ZW/yHNjwFeaZJh5rsa1Fgf8yHPlgIi5f2ZIv/VcgV542fpo3Wjl8AAJiKwauuSOH+bI9apktrki5v7QTbXyKVshP+uVEsXrn7eZqfr06LSABOnTW5mv0mgW30yhY/xJudAGyMxaAtkl+c5oejpzZypaSRZD0c/vKWlyBopryNT+WPXC5v+301t3DpjWb6tLuurIXhqkJY/F0+W/zYnM7SXpKMIcXUIgEIAJiqwduviUHLYxDms9GOkzBGbfHrvxodqBauTnPNWlHt/4ekZTxjU+IP46/MJqt1kiotLsJE/DjxotZP2TtS3dct06U1lyVrS4JAu7X46bx9cHTxvWmuV1bTFZKaabvuetj8oaQk9TedLu0v0+eiwP+UD4v3FsLeH+SzvUfM1Qk5YQqaMwAApqbHuSHtIbCo9TFwC+ZO/Ge29pU7k/1ROiP1h2C46UYaminx54TWnxYnAH2zVwC6ola//ru6Un/hHal/QtyT1t+3uI+Lrk97lVqp8oikv6TtuoeHl1Qk/STBl7iNy94psyXD4ciD+WzxzJ6w9w0cJjKZ0zEAACbf2LRR3Zz2IAyMdd+iFv+SGyiaO/GTk1bvueUkvtZNuonDVITZ7JZEXlhkq1pcAtv8D7AWt0V24/hBGKmWseS0RQUdPlOuntbXK5g8lT8kWyb6tKQ0bKEzS6bjTXZZPizcnw97v5HP9u5KzZ/oeQAAAJPvtiS+MrfxzhiTq6XJA5/wCXIpK2mblobVmRxJkgd+A1GYiklodE8i64+p3vbXIM1tbeUgCS9J1Ww2MW1RM9u5Q8sLEUXUq3UPWCrjMLB28QNm+krKLnuOZB+S2V8LYenqnmyxJJ3UyTOw+UgAAgCmYFbmtxGERyfZLU0A2gS/rjsn1HNbPZ5oSrdSs6TMaOMWojAVFc5XJ3JqrbZPAJqk57W0AJHTFkkaHj5vQNL9iWhXJ2HbjI0UzR4bvZ1aJUWBpbaPy1S7viz5XakcN8v3M9PP8mHlrnxY+gB7BW4eEoAAgMmfFAW2nCiMx8KtpauHXDahk5lmy1//lTL1GvVL0oAuHpZpiEhM8uA5aPmrspPTNrX5CsDCtAVbS+pqZRmijN/NE/JIZ2P/TMJlRK3v4+5fpktrVCgpsMw9ab32FTp7jQd2nFJ4EMrjeqntJf/WcDhyTz5bPHk7lbp4KjbhOSIEAIApGED/kyg80vO2+PVB920nNmkQtfb1X9PggC4epmI9cn+1nCBMrkYQ1JJZddp8BeCYbdvqIgSWpa97pD4FnpC2KGppvTLZPdSmdQbW7vqgpNQmQwdH+66V9FVqgraU6QujoS/L54rHaQL2j03VNIQQAAAmfwCblInARHS8LR/MT5/grMGM1s4yxeRofSQgsIkib+viZ2xGi0tQH09QQJJ5MtoiU2v7OHfGT49ZFEl+b5ojUKkNfEKyy6kLkqRt5PpJPle8oadrwb6EY0PnIQAATPYANgruJwrjM0RZqwevE5oANAXTWnw991Gr1nMvIUAaNb21r/+adB8nACewLXJrbR8X0KY/4UlLeTyWNhq1zrdK+ht14ZFnVC+zKLgmH/Z+axsdNo2APLMOQpBAGd2qSJ+JYW27i5sDpLRvzmiEKKyT62isaYxlWtz3l7JSeWJe9zOfrhauG3ITr/+udz80IicMSGHVd5sua2nlpy1ar232NeYJeDPPJnjV/MaKjHr1+HoljaT9fc/VOndojkqHRfKrJD2HWiFJCiT7QC0MX5ePFhxbGVvMydlPPwlA4gZAL9Ot4kREADHS6OhYSxTGjcxYo3C0pUWYpc7pqydovy9v8aqbwJ269fj7EdlaMzKASOH4N4imq4UJJ3eNchce1zZHtjYJ+T+XTbMW/qriRr1ar16Z1jpdnFbWyssK4ZHzXM3fSNqOiDxqFwXBNfls8dRKve8LEj+JPukZIgQAgMk2c3iEJM24FXr+aKsHJB1dYxP5ikRLV0e4mBytPzkiIYqU8hZvR2DGs7dePHxNIi5D3tJ6FSiiXj3+MY+SUa8mwkDtgjszysyT2Av5CTpl+lwhVzyfk4Kfqk0BAGCSx2v3a+8qYXjEokhSS+Nh0QRuau5q6eSIBOAT42FMjpBKrU7U0BY9IR4WrElIxWptvSKx/IT7QTwe76HaBXdZJnqlXL8nGk94dlxvHc35VYVpC7chGo8hAQgAmPzhs243wvDEmLT0y5sTO+9FfESM7QDQFiGhnPHkEwysXfxAd33NwSb9gGg8aYT6Mm82rp2VK+1AMNZhD0C0tUo9+Ed3trFH3MrVCHMPTszuWkAyzJG6VoqDQNYpZSTPtXQ8lGlO3MoMU0tXeZiME9/Wi0cwzcnJIp0zvTWt/G2l1SsQY9cWeULaItfa1saRerX+/bDpIgX4JMt0aU01ndiTK15vrq9JmklUHvW8jPvl3V2lg4dGy/9MezBIAKLNletDdd0Wu2KR/APWE8xoTNMICUBJKqg2zZVtaRmitV0TmQBc29I5XosPIYnhrHs6+T+kMy9grW2LWvyqaPxuiE9TIg4B0ZpWXkYk+jiesw03WO37wezcwssz3vyR5AcTkUeqjXZU5FduNWP+K1eMLHko1XMyqgMAYLLVGiEDtkc63unTWx6LQd03YSsaPGrtfjweMBlYf87NZBEprfutPhyAZ289UWDTk3AdgbV6BWBAH7feY8aq/2ezqnr+8kqt/BrJ3idXhYiMP0vSjs2xTL9UyqY5DiQAAQCT3+lGTV5FeGTw2mi0OhZ1aWlj4iZHrZ502xbUqvUCwrOGlHY0LT90grZovaZoAg+bauVltDqxHNCm08dtWqAqtfJ3G/XszjJ9UVKNkEgu7Z/P+hlpjgEJQADApOuwaHuiMD74sGZrYzHBe/a5WrsCMJBvR61a7348lygglZMaa/kpvNus2+MV69rmKBltUatPnY1EH7feEEb0cRthtc4dqlT7Tglku7vpPE3sIXDtWomOz+d635bethkAgEkfv9pcorCOK/O8FhdgeGIHUtFway9Hz6NWMTkC1GwOt7gEnT1dmW24EY+0zYn5MaKl+xeb0cc9ppSRtC1x2Hgra+Vlg9W+o5vWsZOk06TWvtoeg9HSN+dML22dxisnAQgAmIJ+lqTEo5OiyJ/X2luhf07s5wX/anFIZ3WrNIua9Sgmi0iljjDT6rZIrjp93WOdw9yEXMm9ra1TTps+rrtL24pDTDfLuv0B+z7U0dncwV3/bdLd6RyMqydq6NtpvHQSgACAKZgHaAei8EgsvKWTInctn8jPa1rrB48dndQvSdpCpR6xDxlS6sGR8kq1eLVWphnM5U48OsFOROKq9QkS2ybthxY82td7k+drgqwYWfLQYL3vMwO1vh0tspe5/AxJa9IVBe+dk1twYNruPQlAAMDkd7HuexGF8VhY8JKWTiWCiZ3MDI3qPkljrbymKCPql6TOnL+EKCDl7mlpW2S0RZLU07VgO0lzknAtTW8ub3ERMoXO5u7UKqnpGfq4STAwVr5psNb/bq+F27jbQjedL2l1Gq498uBTabvfJAABAFPAdp6lo7vTHoVtdNg0k+/W0sGOfIInM+WmS6199c795TxjkiK9giAg5Vq6Wssk2iJJ1swkJg7Z+ozWvyIZBNQrSUZfP6kGdc7Dg/XyBYPVvqMqNdvSZa+X9C1Jt0vyhF72vEKuOC9N95kEIABgSsZtHbna3mkPwmhX7qVq8f41gXzCJzMtf0XKjEnBuhtBHJB2rU7W7M1JwJKC5CRqVujsNZJWtrYUJL7G+zh+5Joy5fpgrfzrSq3v3yq1vt07O20ruXolnWbSLZKipFxpJJ2UquaZyg0AmJoeNtgn9WPXKGr5IH5MmeUTPyZv8aTb/cVzdUKOh4zJEdLNJ+EHjo00ozurF3EjEtYWtXivW5elvm0f3+N2J1q51nhwpLyyUu9bXKn1fWig1ren1eqzZf46mb5osmvU4q1gNuvxdi2YOfOoQlruJQlAAMDUdLDmb0x9DGSHtLgID6+u7jbhe2S5/NYWX1e4Jhx+dZrrVne2tIekbWlpkG7Bba0uQcaU6r5ujkozJO2XqIuK1Op6tfv4voqplc3qjZKMNi4eBnTxcKXaf3ml2nfKQK28v9fCgsneLOk0SXe02eWE4Vh9fmp6SaovAGAquPSqLacftVXKJ0WtPm3semnRxL+2Eej61s/P7LA0P1+BdDitDFLfz9R0g1r8alokT3Vb1MxGb5CUqBXZFtj1LS9CZG9Oc72KgnQ/V3E3qHMeHqiVf1Gp9X2oUuvbtWkdO5j0HskulDQa+77D7fUpGi8CADA1fU6z2TgkrRffzEZvkhS2dgoxOYm67tG1N0uqtTjEhyvVqwOYHAFDKq+WdGdrm1m9Kk2vkz35+pP3Y0yj2YjBj1xBitv4kzrNlfq3SNrJqur5ywdqfadXauX5XTXLm/xwM5Ul1WPacL0mLfu3kgAEAEwd9/mpvfbAjmj5+Mb9hsn43GW6tCbTn1t8edvku3pTuU9Svqu0LQeAAI/2M9e1uASZzrF6SlfklrJmOjRpV7VqbOh2SWta2n/LX92t0qw01qqecPBgSbNp3NrTvSqPDtT6Lxmo9r21UctuLfmHrPUHNj2h31B3TzbaNRXTEaokAGAKvSmN+9jMnHlUwVwtT35mOqPJW8XgrX8N2CKdmMaHytxPZEwHPPJABDe0vAhRkMq2qJD1BS4lcPXj0obLbmpxIXJBqGNT+UhL76ZhS4bVOneoUus/baBmO7v7kTLdFKPikQAEAGCCdQQevCttF52tjb1DLd8Tye9aMbLkoUkboMcgAeiyo2fp6O501a55He5K3TMFPG1bFDWvb30hfN9C54KXpi32kdl7E3x118egDO9Tyra6KExb8BxJbHGROOXmYL3/Z5Vq38vN9TZJD7a82VaQigRgB5UvebrD4iEm+3zsChY03zM4uvg67hCQbuuSFfP+R1raSMcVLwpkt57U6jG7ya6c1PuasaWK3Fs8OenqCGvHqqbT0vI89WTzbxGn/wKPGhgbvCWfKwzK1dPKckSBvVspWrnUky29yOQHJvX6MtLSSPpIa0thL5yTW3DAyuriq9JSr6JGcJKZOmnZkjstGKj3nbP1jNKvGmP+E5datle4W/TcNAScBGASOyi3bjffM3ZPdxRswd0BIGnbntyc4wer+mEaLraQvfVIlz2/9SWxCyfz0yuj5fvyueKNcrV4Hz77fzvpkNOX6dJaCqqXmewjAvA4SxuKij+X6biWPpyy43q6Fv7P4Oj5/0pD1E3+sSRf36za2t8MhdOHJc1s6XzKg1MkpSIBOEelGZH5+2jTku/BkfJKqXRYPutnyPSOFo2oZqYh1rwCDACY+j7W/VPbqdSV/Cud1+Fmp8agIGtm1Kb/ZtK/JdJFMbjW5w2GM96ThueoJ1vqlWkfWhTgSeLQFuUUNf4rDcHuzs7fXaajk3yNy3RpzUyXtbocLh1SyC04OA31ynPRRyRtSXOWFuVmpW4nufSL1sxNRAIQAIBJsu3aMEp8kqYQFt4paZfWl8QuW64zq5M/MZncVYYbPrjxTxZ0eMIHcqWMWfRpmhLgycJ67TJJa1ve8krvyGePfGHiJ5TW8blUzCvj8SOXXMEXlPC9AGfOPKrgbv9Oa5Y25WZnZ/Mdkla1oL1OxduxvAKMtuZyu1dfz8WtXNvp4THTogZ3CHiGjtbtE1tOP+rch9actyKJ17eFSj0uXxSTYF88FV8zWC//JR8W/y5p59b2DSoozH5SNZ2c1OcnH/r7JHuhADzJ/bpkbV6l30je6sMDMm7NL0t6c2Lbolzva+WeikMaGvXGLzJhx5jU4j3pXK8oZItHDtT7zk9qrDvrY5+TxPZRKbRiZMlDhVzxm+46dWofK1uThviyAhBt7YHs53fp6Kivjdt/VnR0sScT8GxM+WZj7DuJHbxmo29I2joWc5bO5pS9TuHyC2NyC/4z31l6RRLr1la53h0lfV4Anr4tsnis1jLp0HyueFwSY7yVjp3ubqenpU6t0oWrJPttTMZQ39py+lFbJTHO+VzxNSZOt0+zjPysqe80fCQNsSUBCABopQU92dKRSbuoQlg6VGbHxqQ4lwwPL6lM3QAqOFOSx2L8GPhP5uqEXMKqlzU8OF3SdJoP4Bmaoqr6JMVjRYfrtJ6uBdslLcaNcPQrJu2Yqopl0U/jUaVUaDbGEpd87dExW8j1IyX8FWc8sxXV/n9Iun9qn22xAhAAgEnvbwP/zpbhkc9PyvX0dC3c3uWxOeHYpe9N5fcN1st/cenqmFz+rsPh8NeS9Lzks8WPSf5aWg7gmQ2pvNqk82JSnFkWBWdK8xKz/VI+23uEpHenrV7NrM68QK5KTIrzlp5cMUkr5Uy52umSnksLBrmWT/E3sgIQAIAp6OB7mmr+vFulWe1+Kdup1GXe7JcUl9dylg3Wdr98ygcX7t+N0XzivYWwNxEHzvSEpTfKxMEfwIY+/ZH9b4yK85p8WEjEDxI92dKLZPYTpXCV1nKdWXXTj2NTx13fKeSK85IQ23y2+DFzLaTleuz2pvzqpzohd28awkoCEAAQB7sGoc6WSpl2HqqszfmP5P7yuBTIZd+VFkVT/b0D9aBf0kMxisNp7T5B6sn27mbyCyRlaC6ADbNyrHyzXNfHqEgfLITFtl41N3PmUYXA/OdK8QENHcp8T1IUk+J0uuuC2bmFc9s5poWwdLhMn6HVekw+W/xYT9h7+tYzSnNSGQDXzCkeK/49DWElAQgAiEtPf1gh5+e26StSlg+L347ZL9ejjZrObM1Xl+sy/SBGseh0188LuQUHt+ckoHdXM/uVOBER2ITZTpxWJEsu/W8+13t8O4Zy6xmlOWF97Dcu7ZDmKvVQ7YK7JPt1jIq0ZcYbS8cPiGo7PWHpjS4/X+QmnjCy1DyTnTRW97/mw+L7krSFwIZdvz9nKr8uIy1LRZfIkwUAiM3EyPXWQi7/0/Ya5CwK8tniDyW9L16TTD/7YZUHW/X9kdnpkuoxCsl09+DiObkFB7bTM9GdLe0hs99K2oYWAth4XdXgZ4rRimRJGbn9KJ8rndBOcdxy+lFbjY3pCpdeTK2STPpWzIr0vIbbFbNypbZKzhbC4ptNfqGkLmrV483rkPTK8cqWl/S/+bBwcyEsHZ6Gq5+tI2ZL9rwp/MqxlbWVy9MQWxKAAIBYcbcje8I5F63r/ONtjkoz8uFtZZneHrOi1TwIPtvKAgyNlv8p6fsxi8uMyINf9mSLpXZ4FvK50qsD+ZWStqRlADbNvSqPuuxzsZuDuf8wny2erDbY5yufPfKFzUb9Ksl3p0atM1Ar/zJmr5dL0vM63H+X71zw8naIYU+u9E6X+iWF1Kj1FTrze0ma8YQ/3s3lF+WzxWva7cfMjW4gs5nXT23baHdISxtpqFskAAEAsWPyN2XCjhu7s/NjO9mYE5Z2ikL9XtKC+MVP3x1PwLW2HJnos5LWxCw80830s56w9/Q4rzQt5Eonyf2y8V/+AWyGwZq+a9LdsZuHmb6QD4sX9uiY2L7eXwiLb5Y1fy/ZC6hJ6/EgiD4aw3JtqyD4XbxPB57Xkc8Vv2DuP5CUpSo9WRTogGcY5L0q8uC3hbD4y56u0isTOQ+w4G1THPGlaalbJAABAHG1U2CZa8c3TI/TCgnL53qPj+Q3xnQ1xEims/n5OBRkYO3iB2Q6LZaDS9lJ+XDOr7YMj3x+rCbb0xY8Jx8W+939dEmdNAPARCjXo/geMHC4hbVr8129+8SpUOtWuPd+w6WLJc2iDj3ZyuriqyT9OoZFC831/Xy298ezdHR3nArWk+3dLZ8tXC3XydSgZxyjHPBsf8elQyzya/NhcWlP2PuGpFz7nM7SXpK/eSq/011L01K3SAACAOJspkvfK4Sl3/VkSy9qdWG2yvXumA+L/ye3MyXNjuWg0fT1FSNLYrPfVbPa+JJMg/GsXn5wU81bC7niIqnU6lUIls8Vj/NGcKtiuKoUaHeDVTtL0l9iWrzdFNm1PWHv6QUdPrPVhZkT9r4pCv02yT6kNnhFuaUNd+Qfl+TxLJyd0BHW/5rPFY9rfWFO6sxniyeb2U0y7UPNeeY7J2m/jfj7B5nssnxY/GNPtnSkdFIb/3h4UmeU8R9McbsTjYXZ36alcpEABADEnsv3M/M/9YTF73V3lZ471d+f7yptmw+LpzXcbpf0uhiPGAeaVftqnMq0SheuUmRfjnH16nLXqfnQbylki8dIpcxU37ZCWDo8nyveKNdPeOUXmCzlptw+Ged5mclO8jB7R09Y/PftVJryQxF6uhbsWwiLl0ayX0h6HnXm2Q2M9f9BssUxLuJWcv2kJyxelc8VXzP1X39SZyHXe2I+rNwp0xfEfn/PPubM9u6iTdv79yVmfn4+HPxXPlf8XBueCm357OD35Np7ir/25uHh8wbSUr9IAAIA2kXWpHcHkf+9J+w9fU5n70sm+wu7s6U98mHxfxX5MkkflJSLdYRc/z6k8uq4FatS19dMuiXm9WsXN/00H/rtPbniuyZ7T67tVOoqZEtH58PSH1x+0dQPeIH0qdTLSyS7JObFfI5JXx8N/R/5bPGjc6aXtp7crytlusPiIfmwdJlFwe9deiM1ZSO73qD575JWx7mMJh0g1+WFsHR1PluaP9mr3rdQqScfFj+YDyt3utsZks2lpmzgvXqm/f82zFZyfazh9vd8WLosny0umKsT4j1+1UmdhbD3+zK9Y+qHzjonTfWrg0cMANBmsiY7KQp0Uj4s3mrSWZJdMlAr3zERHz4n7N25KTtU0vEm36uN4vLzgXpfTAcx5bqi3ncqsN+3wdhjF3N9X2HttLz1LjG386xmS1eqPLK5H7ydSl2juWg/cy0clZckbcHjDEyxQO9VpAMU020cHmdrmb4YNfxzPWHp/wKPfloLs7+emJUq8zryXfm9PbKiyY+R9Jy4vsXaDgZHF99byJU+Or53a6y5fD+Z9stnVZH1nheY/Wxl1a6XyvXN/ezZOmJ2JtvxapmOkfxQSSFvkG/CPYps/wkKWyD5G2R6w3A4MtxjxV8osv7Oeu7SFTo7Nge05bO9u0pDP3bZvi34+kZHR8c5qqWnfpEABAC0sz1c+rLkX86HxfvkfoXMrpP5nZEFdw6Nlv+lZ5jV9HQt3N688QK5vUDu+8r84Ei2fRsOV1crsPfEuYADY/1/yOeKX22jjb+75Ha0S0d76I28F29QoKUW6VZ5dKeNZe58pqTgdip1jXQ2XhBY5gWSXmSmeaPyfeWWY5oNtE5ltHxfT6704fETSNtBxuRvcrM3Zetj3hOWbgnkV7r5zW5+R2M0c+fDKj/DPqsndRbCoR0l7eLuu8p0gKQDFWkLUjMT2MdVy9/Ph8UjJb26LQpsykv2gcj1gXzoa6TiNXK7SvK/uvyOnvraZct06dOmRbpVmhV0Nl9gFrwgMt/TLJgn95dKylAbNvPWmA6YhHHCTHMtlPnCRjg6mlfxUjf/RcaDq1bWystacZ09XQu3t2jso5KdKHmrXg2/7KE1561IU/0iAQgASIptZXaspGPlpsBd+bA4KmnEpWGTrZK5u6vbpBmSZipqjO+x5OM/UrfndMhNHx4cLd8X93LOrM5YNByOHCFpl7YbL5leJder3CRZIA9deSsOyX1E0ojM1sqVkzRDpi1G3WdnlGF+DcTQYLX8o3xYWij5a9svN+B7urSn3GRu6gxdeRUfljQi+YjMhuXKujTdTN3ywZn+yJyPFmlSu+IO8xMbbrdImt5mZZ8u6fUyf/26amIaCqdHeSuulvtqKRiReU2u6Xpk/CSfJQXy8b8v56etidDTtWA7j7TDJH9Nl6QF5rYgkisfFh8w86vc9bvIo98O1ff8i7QomowvzneVtpXrdXKfr6hxqGQtTRib7Ptpq2MkAAEASdYlqcukOZI/ludLEJMuq1T7ftgOZV2uM6s9QfEdFmmppM62D76rW7Lu8f/++D9vpYak0XUTNABP9/Q2LXNixht/UvxfBd4QW6z7jz3a/ljr2yJp3b54s9JSqVZU+/+RD3tPluzbCbic4LE+zuP0hvhwkvu3oBns71M/UH2Oux0p6cjAMsqHt62VFf+iSLdKdqdLd1smWm7W+a/Za1dXnmll6GNO6pwTVuY2FTzfFD1f0q6SvVqRvyhG4f7TQK18iVKGBCAAAO07h11ey2aPVa19Nm8aHO27Nh+W/p/k3+L+TUaV0KkKNF+ulxEM4Omtqp6/vCcsHmnSL8VrixPOTGWXj8nt6DRdd6XW/7/5bHFvmd5OLZiMiuXvk9sPlNDThN02+wCQiTBNrpfJ9DLJ1/2YEJlcDQ2F05VXcUTyAZdFj71dYx2SzzRpmkyhfHB2JDMbXyMay6okP1Up3PyUU4ABAGhPoxZ578RsCD/VE6Tyt036Abdwwi2t1O2L8nifRgnExWCt71dy/TeRmGh+V7NqJ6a1LZpZn/E+md1IPZhYJv9hpdr/UynR9eqANijjDMnmmrSj5C+Va2+T77nuf2vrdStHY/7CjemmgVr/z9P4HJEABABMlT8RgombXbn7CQNji//Yrhcwu7bmA3Jdz62cMP/MdHQulMrNhE+OgAlVqfd9XrJ+IjFh1gSRSkMqr5bZqjQGYLnOrEamoqSVVIcJGvRIN2dq0z40/j8T2cfN0tHdknbjbk+6KLLoQ0rp0eckAAEAU8Ps63KdQyAmIpb60mC9/2ftfAnLdGlNGeuV9CA3dLMNR+6HPXqSHSsAgY3hQU0nSHYbodj8ibXc37ZyrH/dD36RPZzWQAyNlv8ZBdF8SXWqxWZ7QEHH4St09prxMVAi61VnWN9P5GemYAitbw6NLr4mrddPBQMATJmZ9RnvMtk1RGJzpqr6caW6+8eTcCmV0fJ9kfsb5KpwYzdZw2RHDdX7b3l0cGskAIGNsVLlEQ+ah0h+F9HYnIm1nVKp91/4uD9IdVs0NLr4GnM/QVKT2rHJ1ljkhw+Onv+vx42DViVzeNcWr/+2eRulu61mqd72gQQgAGDKLNeZ1WZNh8r0B6KxCQMX8wsqdTtRWhQlZoJU77+l6c3XkATcJE1znTBQK/9i/YriDxMaYOMMji6+14POg136B9HYeC59ZaBW/vL6TRFt0UC9/zx3P1okATfFqMwOHxjrf+KY8eGEPkT7c8sn1VgzsONWqjyS5iCQAAQATKkhlVfXOzsPkXQ70dgI5ucOVINjxvd4S5RVY0v+HLi9VqZBbvQGi2T29oF635Neq488YAUgsAkGR8//lwd2sEl3E42N6J6krw/W+j7yFP8HbZGkwXr/z2T2LkkR0dhgdZOVKtXyFU/6f9wTV6+2U6lr3am7mLx2yv9taLR8ddrjQAIQADDlhofPG6hnO+dxSt4GDlrML6hUg+OSmPx7xMqx8s1q2iHiAIsNmxi5jqlUy2c/zSiXGAKbaGi0/M9AmddJupdobFD/9OmBWt//e+r/j7boEZVq+Uwzf49SevDAxg4TZX7ok1a3P1qvkne4TDXn+0jKcusnx7oVyv3fIxIkAAEArRrdDZ83EFT1askuJxrPOGj5alJX/j1pgjRWviHy5v6svnlGIy4/fKDed/7T/o2ISTewOR6qXXCXAtuX7SqeUVOy9w1U+099ur/QiJy26HEGqv3fd7e3SlpLNJ7WCovs4Eq1/+nHhgnc5sIjXv+dRIsHa7ufTBjWIQEIAGiZlSqPVGorD5Hpi0TjSepu/s7BWt+H05D8e8RQfcltHZ22j0u/owo8YYIg/aMZNfcfrPX/3zP+RVbdAJutMlq+r6PaNU/SYqLxJKtNPr9SK3/3GdusgATgEw3Wy30W2YFihelTdF26pcP8VQNj5Zue6e8lcZuLjGXOk9RHLZjgcZPp/EqtZ2GS9s7eXCQAAQAttrRRqfadYtJ7JNWJhyRpZRTYawar/T9K48U/OFJeOVgbeLWk71AVxgexsl82avbyVWNL/vysk6gg4hAQYAKs0NlrKrW+olyniFc3H/E3eeaVA7X+S571b1YjEoBPYWCsfJNlolfIdT3ReKTj8nMzta5Xraj2P/shPAn8keuh2gV3VWp9JUW2j8muoUJMyMDprMHqwLHSGWME4zEkAAEA8RgQ1/pOt8heJemOlA9Yrm9axyvYqHhpo1Lre7+kf5M0muJA1OX2scHaboc9rPKGHZLSZAUgMJGtcqXe90V3O0op36PUpB901LpeVqlf8NcN+furtNfDInH61GOetYsfmFmfMU+uH6c8FGtMek+l2n/MCp29ZoP+RZTc06UrY+UbBmrlA2zdydH38KRs4kja/LOVet8J0tIG4VgfCUAAQHwGxGPlmzpqXXu7dHoKJw1VuU6u1G2/VdXzl1MbxgfDtb5vZZTZQ9JvU3j5t1sUvbJSL39hY15fsQ5euwMm2mC9fEHQYbtKuiiFl/+QXEcM1PpO3OAkjaTxdmuE2vPUluvMaqXe9w6XHaI0vhLsut6UeelAre/0jfp3yd/mwgfq/efNrM3YVfIPSM6YcIOrhgYC+Zsr1f5Pih8fnhIJQABArKzQ2WsGa33viQI7UNLtaRkEyzMvrdT7vpSm/f42eOZZu+CuSs1eY9KHlY7VgGvl9snu2pq9B8YW/3Fj/3F27RgJQGASrFxTfrBS6zvCTe9QOlYDRi59v55tvqhS79vExKevouY8s8Fa+bJGLftiuc5KySWvdtm/V+q230Dtgjs39h9bSvaWXK4zq5Va//9Wans8311vlfQXnpZnqhi6oWEdL19Z6/8lwXh6JAABALE0NFq+ulKzl8p1sqSkTiBWm/SRSt3229BXqtKr3Byo9X3VZC+RdEWCR7D9TYteVKmXP7tMl9Y25RPu1yVrJbHnDTBJBqt9P/Yg2l3SxUmeTCuK9h2s9Z00PLykshkfxJ6kGzIY0LlDlXrf8SYdZtLdCb3MSK6zgg7bdbBW/uYm/+CZum0uFkWD9b5ypbb7HnJbwN6RT7JK0r9VqvYq3qB5diQAAQAxVq5X6n1fqmebO5n0dSVn9ddaSV8aq9mOA7W+r7Dqb8MN1Mp3VGp9r4kCOyBJJwWb7JrAooMqtXJxVXXx5u/742LSDUyiwdHF91ZqfW+R2Wsk/SlBl/Y3d721Uu3btzK2+Ebaoqnu4/p+PlDr2cXM3i3p/uRcmV1uUfTySr3v+JVryg9u1ieldpuLRVGlXl5Sqfft6267yfRFmQZT/Li43M/OdHTuWqn1fYux9IYhAQgAiL3h4SWVgVrf/+vstOeZ6VNq3xWBYy4/wzIdO1dqfSdv8KEOeJKh0fLVg7W+g+Q+X7Lb2nXw6rJfmkWvHqiV919ZXXzVxM21eO0OmAqVavmKSm33l7lbyWV/buNL+ZPMj63UbPfBel9ZE7R/llliV/BPojPGBqrlM8JabWe5TmnjJE8k6SIP7FWVWvl1m7KlxVNhmwtpsF7+S6Xad0pYrW0vs7fLdW2KLj+SdJGiaJ9Kvf+4h9act4I2Y8N1EAIAQLt4cKS8UtKibpW+HoTR8ZK9V9KusS+4adDdfxhZ53d4PWFCeaXef6G06OKe7K3zzewDkua1QbkflnSuPHPa4KS9+h2sZv9rYKosigbr6pPUXwiLh7r0QUmvk2QxL3hD0i9kdlqlWp6UrRUi02qjKdok9+uStarri90qfS8T6iRX9D7J5rZB0VdJ/tNAwTdX1srLJiMueRXHJHVSRy5Zq6rOlHRmPtu7qxT0yrRA8pcm8HLrcj/XFXx5sF5mP8RNRAIQANB2hlRerZpOk/StObni/pHraLlKMuVjVMxIsitkfnZX1cr3qm+UOzepk+9+Sf3d2fm7m2VOMOkoSdvEqJBNSb+V2Zlhtdo/vk/fpDHzSyTdNbWXODUnFZqprBYmVhodHWuT+BSZguUyL7ewCEmY0PlAre/nkn5eCEu7uPnb5TpG0nYxu9u3mXSWdejszX0d89kj4jdIQWFq63Ky9tAbH/N8WSp9rRBGb3IFx0v+ZklhvPo4u9Lcz8zVbfEUjHl+LtnMKX24M5lYt/2Vev/fJH1W0mdn5xbODXxsvmTzTdpP7f3m561ynaOM/bQy2ncfY97Nbh+TL58tXifTPjEr1h2VWt+krFopZEtHu/k5sRsRSW8YrPX9aiI/8wF9fq46rD9+T5Z/6zljHztzwutyWKwrZr92uen8wWrfUTSn8VcIi79zaf/WPRd2XKVaPnvyvuCkzp5waJ4pOlSyN0nauQVXWZNsqeQXK7CLKqNlBiotU8rkcz5PrsNNOsylHVpQiGFJV7r5RWOd2YuHh88b4L4AabMoKORuO9Ddj3DZYSbt2IJCNOS6QdLFZpklm3LyKuJlto6YHeQ65pvrzZLeIGl6C4oxItmVbtGF9HHxNXPmUYVsbexAmQ5y2UEm30PxTwguc+nCKGr+dNXYkj9zFydwOpaGiyQBGA+TkQBMGxKA2Ky2IfEJwCcMjnMLnpeRHeBu+5vs5ZLvpon/tXy1pJtlfrV78NvOWu7aFTp7DbUtjvX/yBfIGgd5ZAfK/BWS7TQJA+B7Jd0k1w2esSsHR1feKC1tEH0Aj7VFpV3WTcSjg9xtX1v348REz8lGXPpTIP1B0hVRLbxqUOdwGEdCzdUJuZHcyL6S5rnbgeOvf86ahK9aYdIfI9fvPRNdMTRauEE6gxPn28wWKvVkQ+0fyQ802Z6Sv1jSli0u1gNyXeGBfhMpumJCDkPDU+IVYABAIo0PHu6R9NN1fzKvoyeb38Vku5hph3Urwmxbl+dNXpDUJbP1BszmWuXSqMsGTF6R9C/J7zIFd42Z/rK6Wr6bSLeH8RUvd0r6viTNUWlGs6u5u7ntYtKOHmkHWbCl5FuaNNtNsyVJrlCm2iP1QdKwyx6SRQ9J9i+XlgXSskxH8y8rRpY8RKQBPHNbVL5D0h2SzpCkbpVmdeSae7psF5d2NNnzI9fW6/oly0vKSdricR9RlWlUrmGZHnTXSsnvCxQsc4/+bhb8daC229+lRRHRToflOrOqqpZKWvrI8GWrXO8OjSjY00w7uXxHk57nsq2kaI5kW+jJCcIxmUbkPii3h2RaKWm5ZH93RX+3ILiNtxqS4WGVB1XTxZIufuTPtpx+1FbNZn0P9+DF5r67TDtIvo1k20vqmsCvH3bZP8z9Nkm3uNktFuhW6tbUIQEIAEiJpY3Bum6XdDuxwEqVRzSq6yRdRzQAtMqQyqtV1VWSJu4UcJUJbLr5imr/PyT949n/6qKAZDHGT9JdIenyJ/5/M2fOz3fUgm0zFmzvFnWbgmlyzXL3UIFmyDXT5R0mq8o0alLVI426WdUsqpjsXo/8wY76tH/xlkzrkQAEAAAAACB1SP7hmQ0PL6lIqki6hWi0v4AQAAAAAAAAAMlFAhAAAAAAAABIMBKAAAAAAAAAQIKRAAQAAAAAAAASjAQgAAAAAAAAkGAkAAEAAAAAAIAEIwEIAAAAAAAAJBgJQAAAAAAAACDBSAACAAAAAAAACUYCEAAAAAAAAEgwEoAAAAAAAABAgpEABAAAAAAAABKMBCAAAAAAAACQYCQAAQAAAAAAgAQjAQgAAAAAAAAkGAlAAAAAAAAAIMFIAAIAAAAAAAAJRgIQAAAAAAAASLAOQoB21q3SrEwuemvcytVoRjesGlvyZ+4QAAAAAABoNRKAaGtBNnqOu50Rt3JlLPNxSSQAAQAAAABAy/EKMAAAAAAAAJBgJAABAAAAAACABCMBCAAAAAAAACQYCUAAAAAAAAAgwUgAAgAAAAAAAAlGAhAAAAAAAABIMBKAAAAAAAAAQIKRAAQAAAAAAAASjAQgAAAAAAAAkGAkAAEAAAAAAIAEIwEIAAAAAAAAJBgJQAAAAAAAACDBOghB8gSdHb9pNuuvi1u5GtXgj9wdAAAAAACAqUUCMIEeWnPeCkkriETyVGp9WaIAAAAAAAA2Bq8AAwAAAAAAAAlGAhAAAAAAAABIMBKAAAAAAAAAQIKRAAQAAAAAAAASjAQgAAAAAAAAkGAkAAEAAAAAAIAEIwEIAAAAAAAAJBgJQAAAAAAAACDBSAACAAAAAAAACUYCEAAAAAAAAEgwEoAAAAAAAABAgpEABAAAAAAAABKMBCAAAAAAAACQYCQAAQAAAAAAgATrIAQAkBZ+jsyuadW3B83oNu4BAAAAAEw9EoAAkBIDtf7vEQUAAAAASB9eAQYAAAAAAAASjAQgAAAAAAAAkGAkAAEAAAAAAIAEIwEIAAAAAAAAJBgJQAAAAAAAACDBSAACAAAAAAAACUYCEAAAAAAAAEgwEoAAAAAAAABAgpEABAAAAAAAABKMBCAAAAAAAACQYCQAAQAAAAAAgAQjAQgAAAAAAAAkGAlAAAAAAAAAIMFIAAIAAAAAAAAJRgIQAAAAAAAASDASgAAAAAAAAECCkQAEAAAAAAAAEowEIAAAAAAAAJBgJAABAAAAAACABCMBCAAAAAAAACQYCUAAAAAAAAAgwUgAAgAAAAAAAAlGAhAAAAAAAABIMBKAAAAAAAAAQIKRAAQAAAAAAAASjAQgAAAAAAAAkGAkAAEAAAAAAIAEIwEIAAAAAAAAJBgJQAAAAAAAACDBSAACAAAAAAAACUYCEAAAAAAAAEgwEoAAAAAAAABAgpEABAAAAAAAABKMBCAAAAAAAACQYCQAAQAAAAAAgAQjAQgAAAAAAAAkGAlAAAAAAAAAIMFIAAIAAAAAAAAJRgIQAAAAAAAASDASgAAAAAAAAECCkQAEAAAAAAAAEowEIAAAAAAAAJBgJAABAAAAAACABCMBCAAAAAAAACQYCUAAAAAAAAAgwUgAAgAAAAAAAAnWQQjQ1jLBsCJdGL+C+R3cHAAAAAAAEAckANHWKqPl+yTNJxIAAAAAAABPjVeAAQAAAAAAgAQjAQgAAAAAAAAkGAlAAAAAAAAAIMFIAAIAAAAAAAAJRgIQAAAAAAAASDASgAAAAAAAAECCkQAEAAAAAAAAEowEIAAAAAAAAJBgJAABAAAAAACABCMBCAAAAAAAACQYCUAAAAAAAAAgwUgAAgAAAAAAAAlGAhAAAAAAAABIMBKAAAAAAAAAQIKRAAQAAAAAAAASjAQgAAAAAAAAkGAkAAEAAAAAAIAEIwEIAAAAAAAAJBgJQAAAAAAAACDBOlJxleZnu3RVnIoUyB6i+gEAAAAAAAAAAAAAAAAAAAAAAAAAAAAAAAAAAAAAAAAAAAAAAAAAAAAAAAAAAAAAAAAAAAAAAAAAAAAAAAAAAAAAAAAAAAAAAAAAAAAAAAAAAAAAAAAAAAAAAAAAAAAAAAAAAAAAAAAAAAAAAAAAAAAAAAAAAAAAAAAAAAAAAAAAAAAAAAAAAAAAAAAAAAAAAAAAAAAAAAAAAAAAAAAAAAAAAAAAAAAAAAAAAAAAAAAAAAAAAAAAAAAAAAAAAAAAAAAAAAAAAAAAAAAAAAAAAAAAAAAAAAAAAAAAAAAAAAAAAAAAAAAAAAAAAAAAAAAAAAAAAAAAAAAAAAAAAAAAAAAAAAAAAAAAAAAAAAAAAAAAAAAAAAAAAAAAAAAAAAAAAAAAAAAAAAAAAAAAAAAAAAAAAAAAAAAAAAAAAAAAAAAAAAAAAAAAAAAAAAAAAAAAAAAAAAAAAAAAAAAAAAAAAAAAAAAAAAAAAAAAAAAAAAAAAAAAAAAAAAAAAAAAAAAAAAAAAAAAAAAAAAAAAAAAAAAAAAAAAAAAAAAAAAAAAAAAAAAAAAAAAAAAAAAAAAAAAAAAAAAAAAAAAAAAAAAAAAAAAAAAAAAAAAAAAAAAAAAAAAAAAAAAAAAAAAAAAAAAAAAAAAAAAAAAAAAAAAAAAAAAAAAAAAAAAAAAAAAAAAAAAAAAAAAAAAAAAAAAAAAAAAAAAAAAAAAAAAAAAAAAAAAAAAAAAAAAAAAAAAAAAAAAAAAAAAAAAAAAAAAAAAAAAAAAAAAAAAAAAAAAAAAAAAAAAAAAAAAAAAAAAAAAAAAAAAAAAAAAAAAAAAAAAAAAAAAAAAAAAAAAAAAAAAAAAAAAAAAAAADAZPv/uIq74XqV3l8AAAAldEVYdGRhdGU6Y3JlYXRlADIwMjItMDQtMTNUMDc6MjE6MDQrMDA6MDBbWC2VAAAAJXRFWHRkYXRlOm1vZGlmeQAyMDIyLTA0LTEzVDA3OjIxOjA0KzAwOjAwKgWVKQAAAABJRU5ErkJggg==;imageBackground=#FFFFFF;fontColor=#808080;" parent="1" vertex="1">
                    <mxGeometry x="141" y="377" width="89.13" height="36" as="geometry"/>
                </mxCell>
                <mxCell id="35" value="&lt;b&gt;&lt;font style=&quot;font-size: 14px;&quot;&gt;1&lt;/font&gt;&lt;/b&gt;" style="ellipse;whiteSpace=wrap;html=1;aspect=fixed;shadow=1;strokeColor=none;fontSize=12;fontColor=#FFFFFF;fillColor=#6666FF;gradientColor=none;gradientDirection=east;" parent="1" vertex="1">
                    <mxGeometry x="239" y="96" width="26" height="26" as="geometry"/>
                </mxCell>
                <mxCell id="36" value="&lt;span style=&quot;font-size: 14px;&quot;&gt;&lt;b&gt;2&lt;/b&gt;&lt;/span&gt;" style="ellipse;whiteSpace=wrap;html=1;aspect=fixed;shadow=1;strokeColor=none;fontSize=12;fontColor=#FFFFFF;fillColor=#6666FF;gradientColor=none;gradientDirection=east;" parent="1" vertex="1">
                    <mxGeometry x="418" y="89" width="26" height="26" as="geometry"/>
                </mxCell>
                <mxCell id="37" value="&lt;span style=&quot;font-size: 14px;&quot;&gt;&lt;b&gt;3&lt;/b&gt;&lt;/span&gt;" style="ellipse;whiteSpace=wrap;html=1;aspect=fixed;shadow=1;strokeColor=none;fontSize=12;fontColor=#FFFFFF;fillColor=#6666FF;gradientColor=none;gradientDirection=east;" parent="1" vertex="1">
                    <mxGeometry x="418" y="154" width="26" height="26" as="geometry"/>
                </mxCell>
                <mxCell id="38" value="&lt;span style=&quot;font-size: 14px;&quot;&gt;&lt;b&gt;4&lt;/b&gt;&lt;/span&gt;" style="ellipse;whiteSpace=wrap;html=1;aspect=fixed;shadow=1;strokeColor=none;fontSize=12;fontColor=#FFFFFF;fillColor=#6666FF;gradientColor=none;gradientDirection=east;" parent="1" vertex="1">
                    <mxGeometry x="386" y="275" width="26" height="26" as="geometry"/>
                </mxCell>
                <mxCell id="39" value="&lt;span style=&quot;font-size: 14px;&quot;&gt;&lt;b&gt;5&lt;/b&gt;&lt;/span&gt;" style="ellipse;whiteSpace=wrap;html=1;aspect=fixed;shadow=1;strokeColor=none;fontSize=12;fontColor=#FFFFFF;fillColor=#6666FF;gradientColor=none;gradientDirection=east;" parent="1" vertex="1">
                    <mxGeometry x="407" y="382" width="26" height="26" as="geometry"/>
                </mxCell>
                <mxCell id="40" value="&lt;span style=&quot;font-size: 14px;&quot;&gt;&lt;b&gt;6&lt;/b&gt;&lt;/span&gt;" style="ellipse;whiteSpace=wrap;html=1;aspect=fixed;shadow=1;strokeColor=none;fontSize=12;fontColor=#FFFFFF;fillColor=#6666FF;gradientColor=none;gradientDirection=east;" parent="1" vertex="1">
                    <mxGeometry x="259" y="359" width="26" height="26" as="geometry"/>
                </mxCell>
                <mxCell id="41" value="&lt;span style=&quot;font-size: 14px;&quot;&gt;&lt;b&gt;7&lt;/b&gt;&lt;/span&gt;" style="ellipse;whiteSpace=wrap;html=1;aspect=fixed;shadow=1;strokeColor=none;fontSize=12;fontColor=#FFFFFF;fillColor=#6666FF;gradientColor=none;gradientDirection=east;" parent="1" vertex="1">
                    <mxGeometry x="198" y="272" width="26" height="26" as="geometry"/>
                </mxCell>
                <mxCell id="42" value="" style="shape=image;verticalLabelPosition=bottom;labelBackgroundColor=default;verticalAlign=top;aspect=fixed;imageAspect=0;image=data:image/png,iVBORw0KGgoAAAANSUhEUgAAAQUAAAFyCAYAAAD8sc/oAAAAAXNSR0IArs4c6QAAAARnQU1BAACxjwv8YQUAAAAJcEhZcwAAFxEAABcRAcom8z8AAFZ+SURBVHhe7Z0HeBTntfev7735nOTem57c2DeJjeMSxy2Oe0lc414AdUTvHYTovYreexUd0QwIIdFUAAlhEKiCkAQICfXeu3S+c0bzrker2d3Z1Wq1ks7/ef4P9mpmZ3be9/ze85aZ+TcWi8VisVgslgY9pMH/zu5wVitnpVmdQGoFr1ZZ/kPF/8nuUFYrY7W6QNavM6x2LGVBSgXsujj+0d6rMz/otSpteN81mXP6r85YPGBlVsjglZkhg1dkhgxZnnZh6LL0K8OXZcJI9KilGTB6SQaMWZwBYxelw7iF6eDplQ7jF6TBhPlpMHFeGkye+wCmzHkAU2c/gGmzUmH6zFSYMSMFZqJnT0+BOdPuw9yp92HelGSYPzkZFkxKBq+J92DRhHuwePxdWOJ5F5aOuwvLPO7A8rF3YMWYJFg1OglWo9eMSoS1IxNh3YgEWD88ATYMS4CNQ2/D5iG3YcvgeNg6KB62DYyH7QNuwY7+t8C73y3Y1fcm7O5zE/b0vgl7e8XBvp5xsN89Dg70iIWDbrFwyDUWDrvEwBHnGDjqHA3fOUfBMadIycedbsAJp+vg6xQBJx2vgZ/jVTjl+D34O16RHOAQDqcdLsMZhzA46xCKvgTnHC7CeYcL6BAIdAiGIIcgCHI8D8GO5yDE8Sz6DFxwPA0XHQPQ/nDJ8RSEOvqhT0KYoy9cdjyBPg7hjsfgiuNRuOJ0BL53OgxXnQ6hD8I1Jx+IcDqA3g/XnfbBDae96D0Q6bQbopx3oXdCtPMOiHHejt4Gsc5bIc55C3oz3HTZBLdcNuJn6+/HOq65cEvy6gvx6FsOK3fHOS2bF9XV66uwr2a8hvXj/6F/JFsfIMZAwbJz6QrLcfX9v7ptyh7mviHXx31jbkjvjbnQZ0Mu9F2fC/3W5UD/tTkwYE02DFydDYNXZcGQlVkwdEUWDFueCQyFjgWFWy4bIN5lPdx2WYdeCwkuayDRZTV6JSS5rIA7LsvhjusySHRanJDk7HX2puPcCZe7Tn0d69HDaIKFAIYyy2BA2LGkAum6NeNZx625w5w35/q4bsnPdNuSDz3Q7pvzoNemPGAoMBRMQeGu61K457oEkl0XoxehFxQlOc87HN19+pjvPh72LNazH6MFKJSQYEDYiR76ckPKL7tuzx3msL0w3GlHIThvLwCXbQXgujUfDEFh7PJkmL0gFrZNCgbv8efRgeA74hgEDjqA9oHzAw9C4MBD+O8hODfwMP57BM4POArnBuC//fHf/t/B2X7HJJ/rdxz/PQFn+/pKPtP3JNoPzvRp9Ok+p9D+6AA43Zt8GgJ6n0GfhYBeZ8EfHdDrHPo8+PcMhFM9g/DfYDjlTg4B/x4X4FSPi+gL4Ef/ul0CP9dQdBiccr0Mfi7hkk+6XEF/Dyedr6Ib//V1vga+jhFwAu3riIHuiAHvECk7Co47RMNxR/zXCcEgmyBxxCUKjrhGw2H0IbcYONgD/3WPBh/3GDjQE90rBvb3jpa8r08M7O0bA3v6xcBu9K7+sbBrQCzsHBgj2XtQDGwfjB7S6G1DY2Hr0BjYMiwWNg+PhU0j8N+RMbBxVAxsGBULG0bHwPoxMbB2bCysQ6/1iIU142JhtWcsrEKvHB8DKyfgvxNjYfnEOFg2ORaWTYmFpVPj0LGwZFosLJ4eC4tmxMJCtNdM9Kw4WDCbjJ/PisbyDpLK3HtCEJwZdhCu9N1uEAr3XReivSDFdQGkus6HZJdZMdHdJo/d/m6PJ7D+/RRNkDAFCJYN9NBXO/M/7+pd4PPtrsLK7jsLwcG7ENSg4LkiEdbPCIGzw/fCpcE7pAK/67IUvQwrwgpsJailWCW3GmuwBVkrtybrsWXZILcym7DF2QxxLtT6bMWWaJvcKu3AFspbaqmoxYp03g03nPfAdee96H0Q4bwfrjkfQPvAVeeD2PodklpAagnDnY6iv4PLTscgzOk42hdCnU7CJSc/9CmpRaWWlVpYammpxaWWNxhb4CCHQKlFDsSWubGFvoit9SWp5aYW/Ay25KexRQ9wwJa9O7by3bG1734NHQF+3a/Dye430JHg2z2qEQ6OAgiYPWAGcdgVQYAZhQ9mFgcww9iPmcY+zDgo86AMZFffW7ATMxJvzEy2D2jMVLYOoszlNmwaQplMY0azfjhlOImwZiRmPaMas5+VYzAbQi8b25gdUZa0ePw9WIhZk9fExiyKsqm5U+7DHMyuZk9LgVmYbVHWRRkYZWKUkVFmNmluY6ZGGdv4BY0ZnMdCyugaM7vRSzDbW5oJI5ZlwfDlmAFiFjh0JWWF2TAIs8OBazBTxGyRskbKHicuTQCveRGweyJmNYO9VaGQ6joPHrjOhTTX2XDPeZrf9W/G9Hd7+pXfYJ00BgiGQyvqoa925/X7ak9x8rd7iqHr7iLotqsIlFAYteYurJsVAgEj90FCz2VSgVLBNqaCixkKDAWDUKAssje618Y8cJcyy2yYtSgKdk4OgPBBm5tBId11FnompDpPzY7t7jF30isf/wnr6H+jlYBgOLSG3lye+pPP9hZ6fLm3JPnrfcXwzd5iUEKh7+Z0WDH3Inw/aINUYFRwVIBEd4YCQ8FSKPTAbidlm5R1umzLh8HrUmDrtDMQ3W9VEyhkuM6ATLfpkOY8uTjBwXPVylc/fQar7c/Q/4VmOFhZD322v9Dj0/3FmV8cKIEv95eAEgrzF2Pf2WM/pLvNkgopzXUOQ4Gh0GpQcMKuqeOOAikrnbgiFo6OPwj3e8zVQSHTbRpkuU2FLNfJVYkOHps9X3y9C9ZhhoO19IlP4Qef+pTGf3awFD73KQUBhe578mH5ggsQ138JZLjNQM9kKDAUbA4F6rJ2xSzVdUc2bJkRAPd6zdNBIdttCnoyZDhPLL7+9ZCJWJ1/hTYFB5Yh/WNPziMfHy478MmhMvgUgSCg4LgnF1bND4SEvl544adJZGYoMBTaGgrfYhf2mz1F4LwzB7bM8ofkXnN0UMhxmwS5bhPhgYvH9QPvO3yE1dsQHAgMDAc1fXCoZMpHh8oK/3W4DJRQWD/vDNzvPUu62FJ6xlBgKNgZFL7GLu1X2LV13J0Lm2f7Q5r7dB0Uct0mQJ7beEj4dti6dx55ggYjCQ7/g6YBSVrz8CM0Zw1KUXbwwdHy4A+PlsNHR8pAQGHshliIHrwYcnpMQk9mKDAU7B4KX2AX93Ps6vbc8QDOj93aBAr5bp6Q6Tzm5vo3P3sPq/1v0b9A02yFftbQucca/nmk9IP3j5VnfvBdOQgoOO3JgpMTvCGvx3jI7TGRocBQaHdQ+MynRMp0x6+NhPgBC3RQyHcbBzkuY4qDP3MdhdX/EfSv0dSlEFlD5x5r+MeJ8tnvHa8AhAIIKMxcFQ6pfaYiEDwZCgyFdg+Ffx0qhc8PFsHumUd0UCjoMRYKe4yBxG7997/5298+iaHwO/Qv0SJr6HzdifeC4cdv+1YE/ONEBQgofHKkCHym7ccL5gH5PcYxFBgKHQYKH2N3mDLgSWuvQWrvqTooFPYYjd2JYfGjn/4b3aGpzBp+gu483Yl396X88p0TlZHv+laAgIL77vtwY/gi6WIxFBgKHRUKHx4tA5c9aXBl5AodFIp6jIJs56HpU55/lcYZ/oCmsYafo5XdiY4LhtdPFHZ52688/p2TlSCgMH1tOKT1mShdJIYCQ6GjQ4G6yR8fLYZdsw/poFDcYyTkugzLXf36+99imNDsxP+iaRBSTF12zHGGV4+XvfzWyfLkt/0qQUDBa0WQdFHo4jAUGAqdBQrvYXf5n5ghL1gRrINCcY8RUOg6tGTPP/7VB8PlcfTv0TR12THHGQgIb/hXFr51qhIEFDZ4HYdi95EMBT0ofD/oHGQFP4DKnAqwRBXZVZAZmgtXpsQyFOwcCpQpT113GXJ7eUhQKOkxHONgaLXP+58OwbChW7MfRYs1DR0HDNRlePVUVfIb/lUgoHB0ujcCYQRDQQ8K14YHQm1ZjRzeLdf3M28xFOwcCpQxj94cCRl9PCUolLoPgyLXISVLX3nLEcPnz2gCAw1AdgwwvOBX9MvX/CviXw+oAgEF36lboMR9OENBBQq5oelyOFtHxcnlDIV2AIW3MXN233MXMhEMBIVS96GQ7zIwb8wzL36KYURTlv+Hbv9goGnHV09Xhb92ugoEFA7M3o1AGMZQMAAFa2YJQgyF9gGFtzCDHrk1CvJ7j5agUOY+BMHQL8P1iSc+xHAyBgaCQvsAwytnqgNePV0NAgobFh2TfixDwTAUWkMMhfYDhTdPVcHkDZd1UCh3HwyZzr0Tn/7Zz2gdgyEwtI9s4eUz1bMRCiCgMH/NefyRgxkKDAWGggkoUEa9aOUZHRTK3QdBUvceZzGsXkQTGMTgo5iVUK5jsE+9dLryg5fP1oCAgse2q/gDBzEUGAoMBY1QoMx6y8IjOihUuA+EkE+/Wonh9QJaDD4SGGgdg/4CJ/vSXwJyHnnpTHWmgMLXRzIgu99ohgJDgaFgJhSoQQ0bt1QHhdIe/auXvvL6AAyz59E0XUnrGGiBE618pCXR9jnw+ML56uC/nasBgsJb/mVwbcw8/FEDGQoMBYaCBVD414k8eDBwvASFSvcBUODaM/Pd3/2OHtbyHJoWONHKR1oSTfdK0PiCAIN96MVzVVNeOl8DAgo75+/FHzOAocBQYChYCAXKtvvvjtNBodK9HyR+6xCI4fYqml5MQ0ui6V4JuonKvgYeXzxT2OXFc9WVAgpjtl/FH9KfocBQYCi0EAp/xwZ24erTOihUufeFzW+9Mx7D7u/op9F0ExXNSNDAo92MLzz0QmDdsRcDa4Gg8JFvHuT2G8FQYCgwFKwEhZexoQ3zXKyDQq5Tj9TH/uu/3sfYewlNMxJ02zU9j8E+xheeP1/V7YWgWhBQODpri3TyDAWGAkPBelBwOpQMRb0HS1Codu8DIZ98thXD7w0KQTSNL9CDWsSzGNquG/GHg6k/eS6wNllAwf3AbemkGQoMBYaCdaHwt/O14O21TweF8h69qj/9v//rjmFI4wt/Qf8RTa+va9tuxHMh9QufD64DAYWYUdMZCgwFhkIrQeG1sxWQPnCMBIVq995wr1u3MAzDd9F/Q4uFTfrdCNtBgW52ei6kplJAYeEafwRCH4YCQ4Gh0EpQoIZ33NYwHRRq3HvB+L/+lW6zfhOt342w/WrHvwRWeTwXUgcEhVfPVUDGwFEMBYYCQ6GVoUANcMzo6Too3Pn223AMRxp0fAX9DJpmI8RqR+WgY+uKxhKeuVCTKaCwcK2/dJIMBYYCQ6H1oTDS+5oOChVubjWfPPqoC4blO2i6P4JWOyoXNdkmW/hLcI3HsxfqgKDwyvlKzBJGMhQ6GBQCxidC6KoUiPfLhcy4MijJqoKaijpoaJC/WKNo++rKeijIrob7t8rh+7MFcGxLBmxfkMpQsBAK1BDHjJ4mQaG2Z0+49vnnJzAs6Rbr19G0qIkGHcXahdbPFihLePpibaaAAmUJdHIMhfYPhTOjb0OsTybkJZQhAOrlb2gdVZbXQ+qdSgg8ngcb5qcyFMyEwsidV3VQqHBzrfn4kd+5YXiKQUe6aYrujVAugW69bOGpkKpuf7lYDwSFvwdiljBoBEOhnUMhaFwC3D2dB9WldfJetlVpcR2EBxfBxsUPGAoaoUCxl4kZOkGhtqc7hHzy8QEMT7ovwli20CpQeOiZizU+AgqeO0KhBk+KodA+oeDvHgPxBzKhqrhW3rptVVxYC+dO5sPC6fcZCiagQFn6/HUBOigUuThnY3x+jv4HWj9baL2ZiD/5Ff3ymUu1lQIKIZMXMRTaKRQuTkiA/Ftl8lb2paTbFbBhRTpDwQQU3j1doINCXc8eMO9vL0zFMFVmC2ozEVaFwkNPXqwZ9syleiAo/APTTToZhkL7g0LEkntQVWj950FaU/l5NbBnexZDwQgUnr1QD8FTFuugEPfVl0EYp5+haWxBzES06rqFh56+VBcioLB8zXGGQjuEQvT6+1BX1bqDiNZSRUU9+OzNYSgYgcJY78s6KFS5Odf8/ic/ccBY/QBNy5+fQdNzHcUqR+sOOD59obLL06ENIKCQONKTodDOoBC1Jhnqa82cU2xjVVXWwb49OQwFA1B4KbgK8vsPkqBQ39MN9r771loM10/Qb6PFKkflPRFWm57ErkN1PwGFrseSpZNgKLQfKFyZfRtqMcDao8rL62HzpkyGggoUqIE+Mm+TDgrRX38ejPH6JZpeWEvPXKB7IlplwPGhJy/VHxdQ8Fp/iqHQjqAQMjwaKnKq5U/apzIyqmHh4jSGggoUhu25qoNCoWv3HIxXelHtx2i6tVo54ChulLIOFJ4KqysUUDg7fRlDwQgUovoehNjRJyBhTiAkb7oKGUdvQk7QXSi4mg7FN3OgNDEfyu4WQtk9cpHOraGiO2VQkVcl/1/71tWrpW0Ohal+JXA4qhKcdtsPFF4LLNVBob6nK3z9x0eHYcwqBxypC0GPbaP3RVilC/HQn8+X/f2psAYgKLwYUgXlfXozFJRQcNkJt8f7woMd30NeYBKUJeVCbVn7bpntUfX1AN67c9oMCuOPFUNWSeMg7ZnbVeCAMLAHKFBDHTd2ig4Ku955cwPG7VdoulGKuhBPoenpTFbrQjz0ZGiNh4BCz4NxCAQ3hgJCIWmKL2Tuj4CyxByoYwjYRPeSK2EmgsDWUJjwXRFkFDUdkzlNYNhrH1DwXrJHB4XYrz8JwbjtijbUhWjxLMRDT4bVHxdQWLPqcKeGQny/XfBg4wUoiXwADTXtc+CuPYtusNp3MNemUJh0tAgyi9XLOiChGr5FMLQ1FIbtvaqDQpFrNxpXoKlJ6kLQ3ZP0EhnlLESLFzL9+5OhdZkCCmenL+2UUEgYsgey9l6BqgeFcnVgtZUSkiph6lzbQGHC4SJIKzQO/1OYMXTd37ZQePtcgQ4KDT1d4Hc//nEPjF2ahfgn+mU0LXumW6r1FzKZrYce2Rzx0ycvN4CAQtLIcZ0KCrf7bIOs3ZehOqN1BgJZ5qu2DjPWzVmtDoVJhwubdRkMyQ8zhraEAsVmYf8BOigMfvKJSRi/36DplmpayESPg6fHtdFbpVr0nAVpkFFA4YUL1dJBOwsUHiz1h4rELLnYWfakc8FFrQqFCQcLIa3AvO7hifiqNoXCDc+ZOihseuNVWsTUDf0vND2u7a9oq4wrPNQlpLqHgMK3x+91CijcGb4TigJvQgMNd7PsUkl3q2AyAqE1oDDJp8BsIDQ0NMDW65VtCgXf2Wt0UPD/4F0fjF/luAKtbnwM3eJxhYf+HFY/R0DBY1dYh4dC2uKTUJ3O4wb2rqLiOli8NsskFDxXZ8HC3XnghV6wJw/m782HefvyYe7+fJhzoABmo2chBGZiZjAV/110wvwMgRaOb4uobPPuw5K1x3VQiPvyE3p2oxP6CzSNK9CLY8QNUsr1CmZD4d+7hNX7CCgskw/aEaGQ5L4O8o58Dw11nB20B1Egbt6VYxIKSxEEFVUNTVxuwGXomjrz7g2h2ZBt1yrafPaBoDBGbrQJCukOX93B+KVnN36NFusVxJLnFg02/vsToXUhAgpH5q3vkFC4N3gLlIYnysXMai86dKLAJBQWeOdCnZmBbo52YIZgD+sUCAo9DsfpoFDk3C0X49cVTUue1QYbLVrERBt2eCgkj9wOlfHpchGz2pNOBxabhMKMzdlQYGCNQUtEmPHGDMFeVjQSFD7xS9OHAj23UbmIid4kJW6ltmgGQoLCny/X3RZQuDBlQYeCQsr4XVCVmttYyqx2pwuXS01CYdqGbMgxc4zAlKiLsSuiwm7ufRBQeO90tg4KNW4ONRi/tFaBXi1Ht1K/haYZCHp2o8UzEAIK9wUUrkyc02GgkDpuB1Sn5cnFzGqPCv3eNBQmr8uCjFzrPmWK7nuwp7skBRTekhYwNUIBejoDxq87WsxAiOcr/AlND3QVj2gzGwr/8efQuiwBhRue0zsEFFLHbIWqlBy5iFntVRfDTUNhyvosyMq37oNp04vqYeqpEruDwpMYo0oo/Pbhh/thDDui6YGuyjsmLZ6WbIRCOICAwoNhI9s9FFKGrIfKRB5D6Ag6d6HE9JjCphzILbL+06pzy+pgEoLBnqHw2f89MhZjWExL0lOeaVqyC5puo2YoEBTu91oG5Vd5lqGj6LtThSahMHdbLpRXts40c25ZPUz0L7FjKPzeA2PYGS3ugaBHv7dorUKHg0LRMfwxrA6jHftzTUJhyZ7WHUjOK6+HCQEl9g4FerYCPZ5N3BjFUCAoZC//rnGlCatDqAJb/5WbTK9onL4pG05cKoXvLqAvlsJR9BH8f/Lh0DI4HFYGB8mXy+AA/nsqsgKqzXy4bTZmDJ6ny+wOCp8++vtxGMMCCmIBk/JuSbOhQKOSHQIKaaM3Qk1WgVyErI6gB2nVMGNRukkoWHLvw9bgUjB3YWsuZgwTz5bZIxSMrWokKJi1qpE2/M92DwU3LygLvSkXHaujKPxaaaveJbkluMTsJc+X7le3NyiYvdS5Q0AhZ9UxuchYHUne+3Ja/XkKW0JKNGcMSXl1MPBEqT1DgV4Q8wq6c0PhwcAVUJ3K6xE6mrKya2CWV5pNnry09WKZyYzhbn4dDDpeaq9jCnT/Az1sRUCBHuLaeaFQsD9ILjZWR5L/mUKbPqNxy8VSqDWQMdzJq4XBx+1z9oGhoAeF9OGroTa/RC46VkdRYWEteC1Nt/nTnLdeaj74KAHhO/tdp8BQ0INC8dFLctGxOpJO+he02XsftoSV6zKGZOwyDD9WYtcrGhkKCiikD1kBNdl2/PQk7KLSw1wasIaZ4/pmxkpgyjVmzq3ZsVJSq2D2/Adt+oaond9XwO3sWhh5rNju731gKCigkL/dX65G9qG68hoojsmCzFMJkOIdBUkrrkD8wjC4NT8UHQY3519Gh0Pc/Cvo79FXIVbyNYiZHyH7OkTPv4GOhKh5kRA5LxodIzsWbsyLg+voiHk30bfQ8XANfXVWPMRtvY9waN8Lt6qq6mHT5iy7eJdkz71FdnmXJEPBEBTc50NVUppcldpW5XfzEQLXIdbDH665Hzb5gtlQp5NwyckPfQouOvqjA+CC42kIcTyDPgvBjufQ5yHIIRACHYLRIXDe4QL6IpxzuARnHULhjEMY+jKcdgiHAIcrurdOJxywj2tiqXxP5PNbpxkKlkEhZ/4eTLWt/6Qdc1SRXAD31obBjZ4HzXrrdGtCwd8pAlLPt88HylwMKYaZM1IYCgwFy6BQ4ocn3EZqqGuA7JO3ILr/IYteRd+aUDjV/RoEuNyAtAv58tm2D125XAKzEQgMBYaCRVBI77cIalKz5epkW9WWVkHKulDpVfTXnffaJRROdY+AALdISA5oHxnDxaAimIMwmDWdocBQsBAKOTN3yNXJtqpDINxZcA4inXfbPRT8ul+Hk91vQNz2NKgpb9tuliGVltTC8UO5MGfqfZg9jaHAUGgBFIoPBcvVynaqr66D5CWBEOW8q11B4WT3SLg0JQly40rlX2IfSrxVDltWpcPcKfcZCgyFlkOhMipJrlq2U/reawiEne0SCr7do8DPLQait6RBcWql/IvaRpkPqsDXJxe8JifDfDRDgaHQYihk9F8EtZm2HUQrjnwAMW672jUUTjhEwXHHaDg18CbcQDjkxpdBbYVtFjxV4nGSE8rh5P5sWDnzPnhNTIYFkxgKDAUrQSF70kZoqLH+AzoNqa6yBpIm+0K0s3eHgMJ3TtFw1DkGjrjEQNDMOxC1PxNSvy+G4owqaWWkNVRbXQ/5mdUQf70Ugo/nwe4VabDE8y4sHn8PFk64x1BgKFgXCnmL9slVzzbKD0qAGOcdHRIKh11j4KBbLPj0iIXvht2Gk+MT4dz8exCyOhUubkyDS1vS4dLWdLiIvrAtA0K2Z0AweUcGBO3IhEDvTDi/s9Fn8L/9tmTAoRUPwHvufdg4NRmWj7kDy8behaXj7jIUGAqtB4WiPWfkcG190eDinZl+nQIKB9zjYH/PONjXKw729L4Ju/vchF19b8HOfrfAu/8t2D4gHrYNjIetg27DlsG3YdOQBNg4NAE2DEuA9cMTYd2IRFgzMglWj0qCVaOTYCUCgaHAULAJFMrOR8gh2/oqT8yGWNcdDAWGAkPBnqFQGX1HDtnWV/aRGwiE7QwFhgJDwZ6hUPPAdo9dS14QwFBgKDAU7B0KdYW2WYRTX1kDieOOMhQYCgwFe4dCQ5V13yxsSNVZJRA/dD9DgaHAULB7KNjodunKlHyIH7iXocBQYCjYPRTqbbQK734+3BrAUGAoMBTsHgr1Nuo+VKYVQvwQ7j4wFBgK9g+F0go5bFtXtaWVkDjmMEOBocBQsHco1KTb7sEh96TVjAwFhgJDwa6hUHXrvhyyra+MneEMBYYCQ8HeoVB+KVoO2dZXyfUUhgJDgaFg71AoPmS790bS49cSpHEFhgJDgaFgt1DIX3FQDlnbKMvnOkOBocBQsGco5Ezdgk247V6RVp1dArcGH2AoMBQYCvYKhcyhy6Aur1gOWdso50QMQ4GhwFCwVyjQg1ttOQNBqq+ogbtzTzMUGAoMBXuFQqnfZTlcbafKB4Vwa8QRhgJDgaFgj1DI89orh6ptVRafBXGDDzEUGAoMBXuDQvqgJVCbUyiHqm1VejMT4oYfYSgwFBgK9gQFesFsWdANOUxtr8q0Ikiaf56hwFBgKNgTFHKXHwRosM57CixRQ00dZJ28BTHDjjEUGAoMBXuAQlrfRVDzoO3fqlyZWQIZh2MhdqwfRLgdZCgwFBgKbQWFB65zoehwiByaba/a8hooupEBD/ZFQ+LiUIidcA5uDD0FEQMQFgNOwbUB/nB1QAD6NHw/4AxcGXAWfQ7C+59HB8Ll/kEQ1j8YHQKh/S+gL8KlfhfhYr9QdBj6MjocLvS7AiH9vofgflfR1yCoXwQE9rsOgX2vw/m+N+Bc30h0FJztGw1n+sagY+F03zgI6IfufxNODbgJfgNvwclBt8B38C04PiQejg2Nl14GcxR9ZPhtODziNhwaeRsOjkoAn9EJcGBMAuwbmwh7PRJhz7gk2O2ZBDvH35HsPeEO7Jh4F7ZPugtbJ9+DLVPuweap92DTtGTYgF4//T6sn3kf1s26D2tnpcDq2Smwak4qrJybCivmpcKy+Q9g6fxUWDTvAczHzxkKDIUWQSF9zDqoLy6Xw9K+VFtSBVVZZVCRXoIuVTH9ranLdS5XcYXOZc1cqerS9CpVlyid8YPp1XGNrobizEYXqTmrGgpVXJCtdI3kfOGcH5yndG6jc3CbrMwaePCgGu7crYQbUWUQGFIEh47lw9ptObBgdSZMWsBQYCiYgEKq6zwoOXNNDkNWR1ZhUS3cTKyEc6ElsO1QPkxZkclQYCioQyFz/CaoK7PN05hY9iF6TGduQS2ER5XD5sP5MHlNNkOBofADFFJd50Ox3xW5urA6o1Kw23HyUinM3JrLUGAoNEIhfeRaqM217U1SLPtTSXkdBEaUwdxduQyFzg6FFNcFkL/Ddm+jZtm3CA5nI8ph0vY8hkJnhkJKr8VQHnVXrhYsFkBOUS3sDSqBIQgDhkInhMJ9Vy/ImLwD6ux0ipLVdopJrobZBwoYCp0RCvddF0Le1tNyVWCxflBxeT3sDC5hKGhUh4JCsusiKAmMkqsCi9VUQXEVMGx7HkPBhDocFFL6r4KKW6lyNWCxmup2ejVM3F/AUDCiDgeFZNfFkDp2C1Sn58vVgMVqqrSCOph5pIihYEAdEgr3XJfAgym7oTa/VK4GLFZTFZTVw9wTxQwFFXVYKNx1WQrpsw5AXWGZXA1YrKYiMMw5UcRQ0FOHhsJdl2WQPucQ1OSVyNWAxWqqvNJ6mPpdMUNBoQ4PhTsuKyBl8j6oSuMxBpa6MorqYJRPIUNBVqeAQpLLSkge7Q0VcQ/kasBiNdXNjBrou6uAoYDqNFBIclkFdwduhqLzsXI1YLGa6mx8FUMB1amgkOiyGr0GsrYEQW0RL4lmNdeGS+UMBXSng0KCy1pInnAASiOS5arAYjWqqKIexn5XzFDojFC47bIObrttgMxtF6A6s0iuEiwWQERqDTjvYih0Tii4rId4lw2QNGw35PpGQl1JpVwtWJ1d6y+VMRQ6MxRuuWxEb4I74w9DfkAc1BTyeENnV1ZJPfTzYSh0eijcdNkMcS5bIGGkD2Qfug6VqQVyFWF1Rh2JqWQoMBQaoRDnvBVinbdBXJ/dcH9ZIOSduw3VubxcurOpqLIehn5XwlBgKPwAhRjn7egdEO3sDXGDfODe4kDI8Y+H0vhsqC7gLkZn0LG4KoYCQ0EdClHOO9G7INJ5N0S67oWbHichySsIUndEQPaZRCiMSIOy5AKoyiuH2pJqqCurgboKcq2ZrjPqWs2uN21sCYVrWujqKgtd3QC1NVjR6+UotDPll9fDgKMlDAWGgnEo3HDe0/xV9C4+cM39MFzreRRuDDoJUSMDIGrsWYj2PA9RnoEQ6RmEDoEbki+gL8L1cZfQoRAxLgyuSb4MV8eFo6/A9x7fo6+ir8EVjwj0dQj3uAGX0WEekegodDSEesSgY+ES+qJHHPomXPC4BSEe8bJvQzA6aFwCnPdMgHPjE+HchEQ4iz49MQkCJqEn3wH/KXfg1NQ7cBLtOw09/S6cmHEXjs+8C9/NugdHybOT4cicZDg09z4cnNdon/kpcGBBCuzzSoG9C9GLUmDPolTYhd65+AF4L0UvewA7lqfBNvTWFemwdWU6bFmVDpvIazNg26Ys2LcnB/z98yEiogwyMqrlkLQPeUdUMhQYChZAgV9Fb7W3Ti9YnAbbd+XA9agyqMRsoq11L78OHPYzFBgKDAW7eBX9um05EBvftq8GrEMuzQ4sYygwFBgK9gCFSXPTYNK8NDjsVwjlFW2XNZy8Xc1QYCgwFOwFChMRChPmp8HqHTmQnVcrh6ltlVZcD66HShgKDAWGgj1BYfyCdFi6NRuy8mrkULWtppwtYygwFBgK9gYFT690WO6dC0UldXKo2k4HYqoYCgwFhoI9QsFjYQbsOlEgDQDaUjfSaxgKDAWGgr1CYeyiDLgSY9tVpZml9eB2uIShwFBgKNgrFOZvyYHSctt1I2oxMxntX8ZQYCgwFOwVCmMWZ0DgVdu+8GdOcDlDgaHAULBnKCzZlQdVNQ1yyLa+tt+oZCgwFBgK9gyF0UsyISGlSg7Z1ldAYhVDgaHAULB3KJy8ZLsuxI2MGoYCQ4GhYO9QWHvIdm//Si6oYygwFBgK9g6FedtzbTaukFdez1BgKDAU7B0K0zflQG6hbaYmKxA+DAWGAkPBzqEweX02pOXY5n6ImnpgKDAUGAr2DoVJ67IQCra5e7KmjjMFhgJDwe6hMG1jNuQU2AYK5dU8psBQYCi0i4HGChs9ti2/gqHAUGAo2D0U1h604ZRkIUOBocBQsHso8OIlhgJDgaHQBAqJqbZ7JPyZOwwFhgJDwa6hQDdEVVbzDVFohgJDgaFAUAi+Ztt3fM4J5ucpMBQYCnYLhXlbsqHMho99r64DGMUPWWEoMBTsFwoRN237khjpcWxH+HFsDAWGgl1CYZ9fIdQ32G4sgXQ9o5Yf3MpQYCjYIxRW7cq1abdBaD8/4p2hwFCwPygs25YDuTZa0qyvyfwyGIYCQ8G+oLBxby7k2+gWaX09KK4Hl4P82jiGAkPBLqAwCYFw7HTbvmD2+K1KfsEsQ4GhYA9Q2OidA7cSK+XQbBvVNQDMPM+vomcoMBTaDArzFqbB7v25EHOzAmprbTvDoKakvDpw2F/EUGjvUEjutwZSR2+DVM9dkOK5W/J9zz3ovZDsuQ/uee6XfQDuevqgD8Idz0OQ5HkYksYdhsRxRyBh3FH0d+hjcHvcccnx407ArXG+cHPcSbQfxI07JdsfYscFQIzHafQZiPY4C1Ee5yRHepxHB6KD4YZHCFyXfAEixl5EX4JrY0Ph6tgw2ZfR4fD9mCtwZcxVyeFjrqEj4PKY6xA25gY6UnLomCi4NCYaLo2OgYujY+HC6DjJIaNvom+h4yF49G0IGnMbAscmwDkP9LgEOOuZAGfGJ0DA+ETwn5AIpyYmwalJSeA3OQl8p9yBE+jjU+/C8Wl34dj0u3B0xj04MvMeHCbPugcHZyeDz5xkODA3GfbPuy957/wU2LMgBXZ7pcCuhamwE+296AHsWPwAti95ANuWPoCtyx7AluVpsBm9aUUabFyZDhtXp8OWDRmwb08OnPTNh2sRpZCXVwttj4IftO1qJXyzh6HQLqGQ5rkVCvaFQHnkXahOyYXa3GKoKyyDuqJy/PcH15o0tlAGXNPElWa4SnK1UVdrclVhjRmu1bnSkIt+cIUxF9dCeTPXNXOZcIlhl8ouL6uDKhs9C8ESZZfWQf8jJQyF9gaFjCk7oDQkBuorbXe3HKtz6FB0JXy7u4ih0G6g0GMBFOw5D/Wltl3uyuocKqioh4GYJTAU2gkUHvRaCKVnI+TiY7Gsr303KqHrriKGQruAQo95UHr6qlx0LJb1lVJQC319ijoxFMLqitoTFAp2+MtFx2K1jpYHl0L3nYWdGAqX6+4LKNwcO8muoZDluR7qS8rlomOxrK9Ld6vAwbvALqHw3MXqJlB45mf/PRRjuHWhcGXiHLuGQlnQDbnoWCzrK6e0HoYfLkIoFNolFN47nd0EChi/vdHWh8ITl+ouCChcmLLAbqGQOXwF1BdzlsBqHdU3YLchsAwcdxS0Nyi4oL9GCyg8ibYeFI7Mw/TcTqGQv+aIXHwslvV1PKoSnLYX2DUUPvFL00GhyLlbLsavEgrvo/+ObjEU/uOJsLoT7QEKZSGRcvGxWNbV1eRq6OldYPdQ6HE4zlwoPIw2CwoPof/jiUs1uwUUNi3fZ7dQqEnNlouQxbKekrJrYejeQnDZlm/3UOh3IFIHhWyHb1MwfgUUvkILKPwZ/b9oAYX/QFOsa5IEhT9frJ4noDB5R4jdQqG+okouRhbLOnqQXwseB4vAdWt+u4DCvA2ndFCI/+rzGxi/vdDOaILCe+iX0QSF36H/B20ZFLqcL+0poOB8NMFuodBQb783zrDanzKLamHy4UJw25LfbqCwb+F2HRSC/vXeKYxfAYUv0f9E/w39BLqFUPDNeE1A4dWgUvvNFMo5U2BZR6n5dTD5UCH02JzXrqAQPnGeDgp73n5jN8ZvT7QT+gv0P9Avobugf4v+b/T/Q5sPhf9deuZ3Agp04ML+/e0SCtUpWXKRsliWKymrFibsLwT3TXntDgpZg4fpoDDpr88sxvglKDiiP0e/i34R/Tj6N2iLoUCjkj968lJtloDCDc/pdgmFsqDrcrGyWJbpSlIVjNiRD7025rU7KLwaVIZAcNNB4fXf/Gosxq472gH9Gfpt9PPoP6F/jf4vNEGBYtx8KPz5Yu1FAQXvxTvtEgr5Kw/JRctimafaugY4frUM+m/Khd4bctslFNwP3dRBodrNsQbjti+6B7o7+hP0W+i/ov+I/hX6p+gfoS2Cwn8+EVw+X0Bh+J6rdgmFjCFLobagRC5mFkubsovqYK1/MfRdnwt9EAjtFQqrVx3RQSGl25e3MW4FFLqh/4V+A/0s+g/oX6J/gjYbCiQJCo/7Z38ioPBaYKldQoHufSg9/b1c1CyWcdFzHkNvVcKEnXnQb11Ou4dC+MT5Oigc/MfbBzBu+6Dpvodv0R+hX0M/jX4U/Qu0cjWj+VD4eZ9Zv3gqrK6SoEAncHPMJLuEQubo1ZwtsEzqfnYtbPQrgoFrcmDA2px2D4UXQ6qgvE8fHRT6dHlsNsat1Zc4CxFBaHTyYRpXEFDwXrzLLqFAz1PI33BcLnoWq6lyC2vh6MVSGLsxBwatzu4wUOh58KYUjwSFcjfncozXfmhao0DTkVZboyAkoPD/ngwsXSCgMHBfpN1CgR7HVnwiTK4GLBZAZn4tnAgthUmbc2DoymwYvCq7Q0Fh9cojOijEf/UlrWSk8QQxHUkzD++gX0C3aDpSiHag9OJHjx9L/1RA4aXgKijsP9BuoZDqNh+KjoXKVYLVGVVd0wBJqVVw4EwxTN6QA8OXZ8GwFVkdEgqJoybooLDrzTf3YLwqBxlp5uFNdItnHoQEFP7z5z0m//KpCzXZBAU6kf3zt9ovFORHvOdu9IXavGK5mrA6uhoaAFIzquFMWAms3pcLo5dkwsilmTBiWVaHhYLz4QQpDgkKVW7ONa//5lceGK80nqA/yPgMWgwy0syDRYOMQhIU0D9+4nzZegEFF/lk7BkK9N6HtDEboSTgmvTyF1bHUnV1A2Tm1EDs7Qo4eb4IVu7IgSkrMmHsogwYszijU0Bhn9cOHRTkrkN/tPJGKKsOMgoRSaRxhT/tjn1bQOHZC3WQNHK83UNBvCEqZdg6yF55DEoCo6Hqfg7Ul1XxTVT2LGz1a2vqobKyDoqL6yAzsxpuJ1RA+Pel4OtfCNv35MLyjVkwY3G69Cr68QvSwdMrHTwWZnQaKPwtqAoK+g/WQWHla69sxjilrgOtZFRb3mzxPQ/6El0I6oP89KmgmhgBheWrT7QbKLSHF8y2hjr6q+gnzkvrtFDw2H4ZgdBTgkKZm0v5rx9+mB7USusT3NBd0bRoyarjCUICClIX4km/3MkCCu8F5ENpn34MBYYCQ6ENoBAyaYkOCuGffxKC8UldB+X6BHou46to5aKlFo8nCNEXULrx8B9mHXzyLxdqqggKdGLei3YzFBgKDAUbQ6H70WQp7gQUenbpMgfjU7/rIG6X1l+f0KLxBCGRLVBf5L+ePl24UUDhff98hgJDgaFgYyicnrZKB4VbX30lBhgNdR3074xs0XiCUJMuxKOTdz39bEh1FUGBTvDslBUMBYYCQ8FGUHA4kizFm4DCjBdfXIVxKVYxKmcd6JHurdJ1ENJ1IdD//fSpgk0CCo6H7zEUGAoMBRtB4QxmCQIKGQ4OqRiPA9BiwRLdKi1WMdKsAz1pyepdByGRLfwI/dNHJ2x75rng6iqCAp3oyRnrGAoMBYZCK0OhsQHuo4PCgpdfXo/xqBxgpLdB0YKl19F/QdOt0mLWwWpdB6EmXQj0z549VbhTQOEDvzwo7j2QocBQYCi0IhRiRs/QQSHdwVGZJYgBRvE8RroBip7cTAuWfo62+FZpU6IvI9JIA46/H7P+2eeDqqsICnTCC9cEMBQYCgyFVoLCrPXnpfgSUPD861+XYhyKLEEsa/4YrRxgbPENUKakzBZo0OLnfzmSukBA4fUz5RAzagZDgaHAULAyFD48mQdpA8fqoBDxxTdXMf7UsgS6TZre70DLmh9BiwFG6vZbPUsQUmYL//2Tt7959PkzZXcICi+dr4H+e+IYCgwFhoKVoXBg3i4prggKZa49a/7+6197YvwZyhKeQz+GFlmC1QcY9SWyBSKPlC08tfGam4DC3/AHHJm1haHAUGAoWAkKA6SGdoAOCvvefc8H405rlmCVZc1aRAfQZQvoXz/vV3BaQOGNgHKIHz6VocBQYCi0EAofn8jFboOnDgqpDq6pv3744WEYc2JdgphxoCyBHs6qP5agzBJaFQoiW9CNLfxuwIIXXzhTmUNQeBnp1v1QChT1HspQMAMK9TXWv2uTodC+oRDmuRQb14ESFEpce9d0/cOfpmO8idWLynUJdDckzTiIW6RtMpagL2W2QMsnf/Xk8kAnAQX6QTPXX2AomAGForg8OZSto6rCGoZCO4bCuiXHMH4G6aCw4bW3d2CciW6DeCUcrV6kG5/oQSr0CHe6G5KWNNs0SxBSZgvSugX07/66/+4qAQX6YQfm7GQoaITCzQVX5HC2jhL2pjIU2ikUBu66iUAYrINC+GddwzC+BqJFt4EGF+keB3rcGr39iVYv0o1P9Jp5sS7BplmCEB1MZAs0oEEvmXj0Jd+CKwIKr52ugqDxKxgKGqAQ6nQSEtdHQW1ZjRzWlom6IQl7UyDA4QpDoR1Cocf+u5DVz0MHhTQH90x5HEG/20B3QtLgIj1Zie5x+D80rV5U3vjUJlAQ2QKlKrS++jePOHm+8jf/8lwBhXf9SiFs3BKGggYoXHLyQ5+Ci47+6AC44HgaQhzPoM9CsOM59HkIcgiEQIdgdAicd7iAvgjnHC7BWYdQOOMQhr4Mpx3CGQrtEArfHMqAlAETsBEdIkGhyLV/zTd/eJzGEZSzDaLb8CGaljPT4CJNQdKTlSgGW231olYJMFCqIg06ov+3y0TvL//uX15CUKB06KMThRA1ci5DgaHAUDAAhY+OF8KdIdOkxpOgUOQ6oGbqiy/THZDKcQSabaA1CXRrtLLbIAYXxRQkZQltAgSSgEKTQUf0o0/OPur+qn9ZNUGB0qKuB9MhCX80Q4GhwFBoCoWPj2GjOWIBAmGYDgprX3/HG+OIgEDjCGKREj22nWYb6P4GWpOg1m1o0yxBSIBBDDrSyCfNk/7xqXnHBwkovHWqErohGCJHzmcoMBQYCjIU/vVdIUQiEEp6DNdBYde7Hx7E+BmIFqsW6eEpNI5Ai5TeQ9Nj1uguSLEmwS66DfoSYBDdCGk2Av3Ys6suThVQeBvTpE/wInw/eglDgaHQ6aHQ/UA6JA6aCcU9RuigcPT9L3wxbpRAoIFFWrVIr4Cj6UcaR6ClzPSEZjHbINYktGm3QU3KbgT1baiPQ32dLs+tvjxXQOEdTJc+PFYMQZ5rGQoMhU4LhT677kJ6nwkIhJE6KOgBQcw0EBBoYJGek0D3NtAr4PTHEdpstsGUlN0IMb5A05S0DvvPz849PuYt39JqggKlTURKnxn7GAoMhU4HhTEboyCtz0SpURRQ2PTWB3sxTvSBQDMN9GRmWsZMA4v0IFZatUiPWKNxhDZZpGSulGCgk6WTlgYe0U8+M2FX/zePl5YKKLyHxJy78iLk9BzPUGAodAoobJjvKzWC1BgSFPJcRtSsev19GlQ0BQRaxvwUmp6mJFYt2t04giEpwUAnTYMg9CNolPSpxwcucn7rcEGGgML7SM6eu+5D7JD5DAWGQoeFwtc+eXBxzFqp8RNQyHMZWTP5+dfEtKOYZRBdBgICTT3S8xYJCDTTQEBQDizSOILdA0GITpL6OHTSAgz0Y+hHPfW7910+enNvepyAAhH008PFcHTKboYCQ6HDQWHo5ni4228W5LuN00HhbvdBma5dnqH3NRgCAmUISiDQfQ20QIkG8ZUDi+0KCnSyAgxiRkIHBvRLf19zY7eAwodHyyWiTlgXCfED5zMUGArtHgpf+BTC9lknIM9tPALBUweFy1/0vPrE//xiNMaAWJhE9zPQtKMDmgYVlV0GNSDY7cCiKWkCw1/GbB/7/uHiUgGFfyFZv/Qpgi1z/SCj51SGAkOhXUJh6qoISOo3F3LdJuigkO08tmbbO1/QQ1LE+IFYqUgLk2gdAk070ixDhwSCkCkw0Ejqi79549sv/rEzJVJA4ZNDZRJpe3qnQeDYzQwFhkK7gUL/rclwbswWyHGbhECYqINCUrcRmf2efMkL67voLtCAIt3LQEuXaaUiLUyidQg07UjLl8WgIsVKhwGCkBoYlIOP9Cjq59GvvTB+/5yP9ucWCCh8hv7cpxQ818XBxVGbGAoMBbuFQp+tqXB04gGp8cp2m6yDQqazZ82ed789+ouHfyLudKTsQIwf0AwD3ctAS5dppSItTKJ1CNRYdlggCOmDQQw+iulKWoxBd3u98rOnX/vszcWXDyih8AWmZF8ihcesj4eAsd4MBYaC3UBh+PpEOOm5F+vkNKnRUkIh/Mv+kX/75e/pIavK7EB0F8T4Ac0w0L0MtHSZVipSLFBMUKNJMdIhgSCkBgaxjoFWZ9Htn7Sem/pSb/3xX4P6vL/5XrQSCl9jivYNUnnE+iQ4Ot4HUt3nMhQYCm0ChVlLroP/2N2Q4TpDaqSUULjZbVTq+OffFlONIjugwUSRHdADUqi7QLc/0/gB3dxET06ipcu02E8sTBLTjh0SCEJKMIgFTrTykZZr0r0SNKhCfSlKoegRU/94pqfX+A83JEQoofDtnmLoipR28s6HxV5hcG6kN0OBodDqUBi+9i4cnPAdxPdZAumus9Azm0DhZrfRqdNe/IBe5aaEAXUVxNgBDSZSdkBPTKIHpFB3gcYPaECRbm6iexloFXCnAYIQ/TgBBwEGWr8tBiBFd4LISQR9C/1Bly9GDv9wZWy4EgrdMIUjahO9h6xPgXWzguHsiF1wr8dChgJDwSpQmLjsFmycfg4iBqyTGhxqeCgzVUIhrttYYzCgrgKtPaCnLtPYgcgO6IlJ1GWmuk5ja1T36eYmigWxdLlTAEFIHwzUZxIDkJQ6ETGJnCJroP4WPbH2oz9/PmLEBwvDA77amlmohILTjkJwRpq7bCuQ6D5pKVbaKRhMQ3cyFBgKmqEwYVkirJ8eAqdG+cCdHkukhoUaGMo+lVBIdZpRE/j5kKuez79L3QQCAY0ZqMFAdBVo7QGNHSizA+oyU9eZ6rxy/IBiQsCgUwBBKQEG5TgDdSeImCJroNdp01gD3QxCF5TSLrrAX7zUZ4XXJ4siQrtuz63RhwJRvgfaHYnfC8k/fHUqzFoYC1snB8H+cacgaPA+CERH9trEUOhkUJg7Lw4dC+umhsGOiefhzLADEDZwB9x1XSo1HNSAUENCWaY+FCK+GX939Zvd9jz+s1+NwjoosgIaQBRjBvowoIFEqrM01UjjZZQBi+yA1h9Q17nTdRdMSYBBLWug/hVlDTTWQFOXlG5Rl4IusIDD5z/7w1/d3hi8be1nC66EOW3IKleDQu+Nja0BtQrUOvTHVmLAGmwxsNUYvCoLhqzESoMVZ9jyTBi+DCsUetRSqlyNlWzsonQYt7Cx8o1f0FgZqVJOnttYSamyUqWlyjsDKzFV5NlYoedMuw9zsYLPm9JY4anie028B4swEBaPbwwMCpBlHhgwY+/AijGNAbQavWZUIqwdScFFQdYYbBuH3obNQygIKRgbg3L7gFuwA4PUG4N1V9/G4KUg3ovBvA+Dej8G9wEMcgr2Q66xcBiD/whC4KgzAsE5Co45RUo+7nQDTjhdB1+nCDjpeA38HBEojggWxyuSAxA2pxE6BB+C0FmE0TmEUiOcQiRYBTkEQRDCiyBGMCOoEdwIcgS7S46nINTRD30Swhx94bLjCfRxCHc8Blccj0rQJHheRYhedToI15x8IMLpAHo/XHfaBzec9qL3QKTTbgnGBOVoBHQjqLchtLcivAngmxHmm2Swb0DIr5eBvxbhv0ZuCChTXIFZ43K447rMIBTCv5p4e/s7PY589sdnp2F9U4KAsgKaTaDViM5omlGgboLIDGiakeoqdRVoZoGmGikDFtkBdZnFrc+drrtgSnQRBBz0swa6cDQ9QxeSLihdWAEHeisOpWS0Coz6azSI0/Wp9/qOf3/0of3fLIqKcl2fVcNQYCiYA4Wwrybf3vVe3xNDn3lvMdYnZddAZAQEAsoKaPCQsgJafET3K1AdpLooMgMBA+oGU1eBZhbE2AHVbarjnb67YEoCDMqsgS4cpVeUZtEFpQurhAOlZNStoJtH3kdTukaPv6ZCosJy7PK6g8dLX3jO/Xj4Pp/PPU76Os2PutVzcWIGQ6HzQiGm+9KikC9n3vb5aNTZTe/0PTL4mQ8Wf/7HF6ZifaHgV2YCSghQ14AyAgECkRXQbAKtRqRxL6qLVCepbgoYUDeY6q7oKijHDjg70CBBS5E1KLsUSjiIzIG6FTTmQIM3r6CJ0JQ9UCEJQFAGQSvHuqOpQKlgifKU9lFh08BQz//906sjXv5wtNcrCr9Gfp880usN4X82+i3hd/X81nCvdxX+p57fJ79BHur1ofBrjf5Y4U9eER4s+bOXf/AX5Jd+8FfkF8gDvb4Rfq7R3wo/O9CrWxP383IgP93UTk3cx8ulmXt5uTWxu87ukt0UdpHcS2enJu7ztIPC3XTuJ/lbPX/T1M9+pfPAZ7/Q82eSB6M/+ePLk7B8KcDVTEEvAp9MdYHqBNUNJQSo7lAdorpEdYpAQDMJVNeoztFgONVBGjMQ3QSRGVCdpe6wmFnQHztgIGiUAIOAA11IuqBKOFC3gsYcaEkoDUjSiC4RmgYlqZCosIjelEFQWkcFSQVKN54Q5amQifgCFrSwhCqBMIFDmCoIu/1bWaZkUdZU9lQHaFyA6gQNFFIdUUKA6hDVJapTAgSUFVAXgeoe1UGqi9RgKTMDJQxEV0EAgWWBlHCgC6oPBxpzoEEbWvxEaRoRmkZ3BSCI3tS3o8VQAhLU56NMggqZsolP0VTwlAoSMKgikKkLQqbKwe44FuUqypnKnMqe6gDVBQIADRRSHaHBQqoztF6GugZUl6hOUd2iOkZ1jeoc1T2qg1QXacxAdBMMwYCB0EKJiyguqsgcxJgDkZjSM5E9CEDQrAUtHaV07hm0gATRnboaAhS0mITGJCgVJGBQRaAWgUwVg93xLMqXyprKnMqe6gDVBaoTBACqI1RXqM5QNkDdVKpLlBFQ3RIgoDonugjKAUSGgQ2kBgcx5iCyByoUAQiiNs0FUzqnhATRnQaBCBTUB6QCp0VSAhhkmt2gVoFMlYPdcSzKlUzlLAKf6gDVBaoTVDeojtCYFdUZygZobQHVJapTAgSUqVKdE1mB/gAiw8CGUgJCwEEfEJRBiC6GgAT19YjuAhTUB6QCp1FiAQwyVQZqFYSpgrDbv5VlSmVMpvKmsqc6QHWB6gTVDRoopDErfQiIjIDqmH5WIGDAIGhDKeFgCBBUcEpIUKFSv48KmRZICVhQ4RMwyFQZCBzsjmsqY1HeVPZUByj4qT5Q3aA6QhCgOqOEgDIjUIKAYWCH0geEPiTEOIQ+KMhU6FT4AhpUGdgd31TWZBH4oj7oA0AtGxBmELQTiYJSg4Q+KAQshKkiCHCwO65FOesHvgh+YUMQILPasZQFSVYWMlnAQh8a7I5t/XLXrxdk/brD6sDSL2yl1SoHu+NZreyFWSwWi8VisVgsFovFYrFYLBaLxWKxWCwWi8VisVgsFovFYrFYLBaLxWKxWCwWi8VisVgsFovFYrE6vE50i37zpEPk+8e7Rbme6BY5+6RD9MIT3aKCfbtHhvt2j0qWN2OxWJ1BjcEfJb3G34AZCixWZxJDwQ517NvIX/h2j6G39KjqRPfIvpTOGdvGUuGx6b0ArS4/p7jf47Ho5STNRL+LUlZKXQ1toybfblHeJ7pHRWKlXYlpble6jvKfbCI61+Ndo4ZS2i0s/8lqoutG10ZYeSxycJ9kelBri2QKCvR3eVNWa4gKkQqTKhNV6uNdI+PpwmNAHJM3aSICQtNCigyn4JH/bLakSiZ9Z/QBPHYm/hsg/0kn+puyItLxRCU0B0wEHPydk+XABfq98p8kURAT7PA8KpW/kc6Ljitvpiq6jrhtYfP9oj6TN9Ekuh6470o6R+pXyx+bFF0T/fPWN/4dy5auc9Rkc2AnRPvh9zT5jWZaUwuvIVMw4OZ1h6VBVEnFoA1VWvWLizTGSinvopMEDpVtGx0dQBVa3rSZqOUUx5UsAlPfKoGqul1zF8q7NJHcso1VPZ7iWPTbjF2PRkeGE1jkXZqIrqv6PpJXypsZlICBfmATMOVNDEoOVuXxNDo6QAtUCU7yAJ/Kd2j3ye7RG+WvNKoWHMvkdWapqHlLb9C6IJMCEwNIZRt9F1LrLe/WRBr3bwaFxmxAZbtmjgyXd5EkZx9Y6dW2lY3HogpvEFAqVoMliVpgte2FDbX6hmCgNAFH3ryJGrMT48c1ZQKhMZhryUC0O5JeO29UJuBq1AR2+WtY5kiuhKoXVd+0PRWS6Ra0iZPV+pVaoaCfplMrr7advvVbIfwsWX8bfZv5uxRuWrnp95oOnOapLcFWyzmogagxg2p560021FW0PANRN52z/NWqoutoDqD1jd9vdpeIJUv7hTfR0hqwWppoKRS0ngPBQ95FEn5mEgpKY3BKYylarB9E1JqqbdfczVN1rMiP499MnquyNafKj5+Z9fuMmYCmD3LjXUXzbSjDUkprA2DIao0RS6MoaNUuqnGb1yrJh9JJMxQUfWhqWUy3wMJNW2/8THPQ0DEb+83qf1dxkwEzreCiMRV5lybSkjITPOTNTV5LumYEqsYZIm0Dg8rujZz5GB5v6hYVTJASg72UURDM6TrQ39T2QRvt78sZrNZBzGQ6jnQsqQsYOZu7Di2UBUSWClRrYJOVlZhkCRS0t8DNU0f8TBMUlMczI3XVQcGc7hgFmrxbE1EQ4t+NBoSyFcTgMzWOoHd+poGuLC8t3QYqG3lzVVFWJIGpsQFKNhW0VA60bSNcjF8L2kbejWUtmdMqKguAClptGzVT6yfvJgk/W6m/jZqV+5nTv1Sm1yT8zCQUqKWRN5dkBix1QSdXYrVtVG1wINb4+TaZWZFaSPXtJOv/Lgp4UxmXvKkkDOZjatvomzKR1kjZ8buNlh1DoRWElUTTNJ/axdfajdBvGbQGjwgac8BFFV46iEL4udlQoOtiKnhk67XE2sde1MZbSMaOq98fNwUFysrkTXUyll3gsePlzSTR/6ttZ8DYqkcfkFp6aaao5QvaTJUBQ6GVpHax9a2fkpPwc00tPqWg8i6StEJB9G21tlaym/TxSfSZ3jbNrA8FksbspPnxtHetmu1LLbnKdjrrj0WYgoLa2IWxLgFda3kzSRrBqNn4fbSIK5iOQ10K+TCq0tIdM9UVYVkovLhagqbZ/DgViNq2+tYvfK1QaAyQyK5qfzNkteDGzy2CghYYqe1nanBOafqN8m6SqJVV245MAWpu1wivdZOZGJKxY6CbDAKa022zzIZXHjZmG2r7/GDlOBDLisLKZjJFVLv4WgqNrBzNJpmolApL4xYmA7qJVdNly6CgbWYm+oC8eRNRMKpv39T6QWssy1ArA/zcxG9rvkjI2PXXPx/LZqfMtfpCJi31RO2asKwgCgi1C6602sXX2tfXb920FDZZa0ahtFq6jJ9bliloGHlHq06vaZlFaPQPLaWxfQxVfvybedA07EK6dpaWVctsOVjVyptlBVGhqF1wpdUqpan+L5nSaHlznbRWNEqXxb/0Pfp/V7N+S0fCzy2CgpbzVDueEP7d5JgL/TYxao/noLpGQe3aC+HfWwQF6h7QbzA0c4Bl/IvW7kKoXXsSBbza9k2tDhRWC6VlYMxSKKi33GaOE+CxtWQzZLXzxM9bDQqGUl+SluvT6MbvUIOzMSCQcBtNv02YypoyMBoP0h/PMKTWB4P6uIKWeklQ1c9uWFaQJiioTP1o6z40n5bSOhZBFtN2WqEgpjGVws9bDQoYMEbX2Gs6b7z+FHgiMyLTf+O+Jm+1RqCYnhbG75c3NypjwSWBobE716LMRM2Gpma11MtGRx8wlOmwLJTWi08pfOPAU2RXKgRTwa0WaCTt6w4iw0Vh47E1zpc3hxB+bhEUtIwpULDIm6tK4wxNIaXwTf9f2/MTqJVV7GfQhgJPSAKgRngQCKVso1vUMbpumsBnxIayIW3dB2GCY8vXRbBkaSdyU5tKKdVabRJWKk1jEbSdvIumwCarBSl+bhEUtFRKeVODotZXbT8VSwOMlCFQ0Mm7m5R5swMUOD90dyiIGrMhARbDXSFLJOCB3210wFWtzEg0la22vXFHB5hz/VgGZCkUjNnYqDC1/mr7KK0PFPzMZGBTQMmbN5GW/rAaFExdFwKXvKlRNQaj+nc0t3kDZxpnSEyarpH8larCbZJpm8bjaW+RqRyNZhJGshMKbtV9jFhuTGz66LsOKWtDAQsm3lQfD7cz2HpQKi1vphN+riVTaLZCkKQlvVWFgunUXPV4+pJbS7X9mxnPw+Q4glLau2KmbDhLMNBNxPKgOyHlx+IhLGg7MnWZGj83ft0J4qYGCQmSavsasrnXj2VA1oQCFbSW9A23VQ1y6qfKmzQR/k0DFJo+cUnIUihQq6O2rexCUzMDQgaCqpkJpvIuZsm8TETVRm9lbo1MstGmuyty90vDeg+0kayDZaa0FjpVWvzXYHASELSSWi1Q6fsNZRhaAtsQUCyBgtEuDl4vc6fBcD+TFVstQ9IigjBde7XvNG3jDzil62D5dxt0IY0XyIcwKdrW1Dng37nbYE1ph0LjjU1USCqBZvCZjGpSSwuN7a8lsNGqLZ4lUDDQn6UHeliUnhKwVL5PsjzmsdJc0CilJXCaO/qAlkCi32zs/M1wIQ2MWvI7GwdFDY8NWVouLAPSCgX9oG0MHCm4C+m/5Y81i/Yh0FBAYoU2mjrTNvrno29DLa2BfQvpc+lv+Pv1uwLUL1ZuTwOnpsZJjInOTfF9yfR9eOzPWvKd+qLy0Xad6Hdrm/JUCsvrcTpvapXVvlfNtC0Bha5vS38r7S/PCDXNurD85E1Y1pKWVoBaIWtWYHOlDVzqfVT820raXwyGafkdYqqPYGVJAOmLWjr6Tmt8lylRS9wIiB/ej0FQos+0ZAZaRVCXjoMBrzyWuM6tuW6AMiPq+hB0rPmbWLK0ti7y5lZRY8XVfjOLtvl461XCxtY0cnZbgpDFajNpGb02J4C1SICIshQtfUwKUP1z0rPqC2AsFcOA1amFAaVlus9qq93UA5zGJgy/cxH3MXobLcFF3pTFYrVUGFQmoUCDTPLmLRL1qWl8Qu0YwtSPJ0iIvimBonE5rvr2jbbuEl0Wq1NLPch+MA3myJu2SJSSNwa8+nEstakluiwWywxRK6wWaEpbKzXHY5m9ll2L6XvlQ7BYrJaKugVqgaY0jQHIm7dYNI2kdgxLTbMS8lezWCxrSNsNNdbrr9N3qR/DfFNXhGcJWCwrS0uQtmT5rZpojELtOGaaVlFaZfCTxWIpZGpU31qDjEpRMGtZRWncPNvAYrWKTC0Kas35/8alsOaPMdBUpfwVLBbL2sIgM/oYcmuvZFQTZQ7yjTZapiuN3vvPYrFaKNNpvG3TdATEL+RxjpXS/QeK22V51SKLZUPRKD6l8/p3vVl7kNFS0XnwTAOLxWKxWCwWi8VisVgsFovFYrFYLBaLxWKxWCwWi8VisVgsFovFYrFYLBaLxbJLPR5Wv7zL5Xq+K7KNxNe/E4sK/4lwAH1jhYh/PKxh0iO+8FN5U5vpsWD48eOX61MeC2vQ/Lry9iJ7vN766sjXn2VCovC7hMHsP1xueFIYK+c/u4TVr8GKWoCVuLrL5YbX5V1soj9daOiCx8+09XFbW/Z6vfXVUa8/S4OkwseKaLBFCIb/fCys3rdLaP11q7Vg9J2X6w8ba4WeuATvYqUs+/3Fht/KH3UItcn1tkAd9fqzNEhL4ZusyGZKSyvUJayhf1sHRmuoLa63Jeqo15+lQZoKX7RemPLKn7RIUmAYO6aVj2dPaovrbbY68PVnmZIofFMjzFq30yhTo9oddpCrja63ueJBxk4s5aCX/JG69CqpOZVGbKs22q608rv0uxf4/48gSLzw+AW0rTQQF9bgKW1sRPr7kfG/aYS/l7xJM+lnMZYeW02WXm99PRYGf8HrIw1Kit8lndvl+jD0/j9eanhO3rSJjF0PZeaif/2bCM8Nv2O5dB0MdP8sPT+SNX/b46H1Mfh9/G4QcyQVPl5EU8HdrDKLSqshvaQKREH2K/+Gn0kj7WENz9N3UUVUjr7Lm0tS9rvFOaJ3P36p4SVppP5ywygqdGPHx+//VNovFEKoYtB+osIZ21eZ3lt6bEOy+HoL4XWn828MyB/OSfy2xy43DDUUrHS99a+HtB/ug9/ZBAAGu3dyuVOwqQZnC86vhb+tsaz19sPtvaisOOMxQ1T4BgtJIbXt8P9NLmxRCwL6DPdNNTbQJn03VkoCiH6FFRLbqPXNKbDpfCkQ5I+ayNjvlr4Xf5d07hYc25hacr11oDByXNoPz7nZIKa4HgQD+aMmwt/6iPyfksQ1kP9X0qMXGv6I3x1s6PgtOT/N+6r8Xfw2Q9dU+i1GvpelJ2WrKH/UXCIr0NvO5L5iP73KZcZ+u9GnDRW2oQqmqTU2cG66z8PqF1tybFOy+HobOl89qQWzpuuhlO4a/JCliO/AwN2ueu4tOL/W/m2WllXnlJbCwG2kwlC5qKYutqG/q1YMhUSrgdthy2Z+YZv6fiG1AG3psY2qBddbOldTxxPfr+xyaDmmnsQ1EL9f+q0YeMa6SxafH8osUFrw2zR9P6tRigCYL/pguv7bpYbPsZAbV9cZ6D9KlDaQXuvSQf2KZKBiKCXob0lhGzsnfRnc38Jjm5Kl11s/SA1JbTtzrocQ7YPnKHXvqK9OgDTUDSO15Pxa+7fR+fOYghkSAUAXTd9UEcSAlLx5MxkrUENBo6UgaV/p+CYqMm7TLCMwJ1jVtm3JsU3J0uutNSuh7fTP3ZzrISRdAwQTfs8ULdeiJednzr7626n9NoIsguCf6PGPh0EEHc8Y0Fh6Uisks2Sg1ReVXw0WWioBnpPJgBNA0j+2ln2F1LY159jmtj6WXm+tv0naTi9ItO6rlLxPPNpol0HIFudnaF9VwF6uD8Pv3G2sQWMZkNqFNlfNCtVEP89ky6Whe0FSzTg07itJbduWHFuDLLreGs9JB0m1stByPYQU+0hlZaoVt8H5GdsXr6nUFcNtHpf/wrJYokAMBK9W6Qe5qUygGUT0pLUVVj2OxkpGUgvsFh3blCy93hp/E5UDtZJNtjPjegjpXwOTILPB+Vnrt7FMSEffFl5UZYCY+k4tQac14PRhJElUFA2Bp1bZW3RsE7L4emuo/AQ4/G5KmZt22SwIHP1rYPK8W/n8dPuqZGamGhiWmbI0BdaX8ntMBYuWY2oNOEMVwmTLhqKKj9s169u39NjG1JLrbex4FLT4t9MYbG5q328uwNS2p+tFLbUhmLfk/IxeS4LG5frDNFCI+zaDtXSuGiDO0iitraIpiZYEC246Fq7RRSRaAkNLwIljqh1LOoaRAbI/hTV8aOjvLT22MbXkehus/IqW1tD3i+thaAT+sdCGt5QAMHQNjAVgS87P6L7y8zakbVTAJsrCWJnh72+yUpNlRFLhm9GCGJRc8FKfz0RAKQNWGhyS1twrbixSVCL5E1WZggtVIvl8dOvgaS0A7mP4ngcrHduQWnK9deANrY8RvweDvHGtv3y+hgKHpHY9ZDiebrKPsWsg/mYkOC05Py37GoO1BBuCHu5Psw20PxnL52ssp2BD+7H0pTEAtEoqNAOtiL6oxaJClCppKIQoF+loDTgtra5U6bFS0HHIeI7YXajfbeQOO6sdu5mscb3xO/C4EtSk3yMHgfxXo1AgqV0PLIsmz4I0dQ2kvyuCtYlacn5G9tWSmcn3ZDS5qxL/226eddnppEvhrAQYFkspSzMzVhuqJWkxi2VKpjIglp2JKc5qTXEW2t4k+sk8kMNqJUlZgrnjN6y2kzmDiyyWvjDLfMTQoC+JZiBowNDcqV+WDUWFKN3eK0/1NI7mc7eBZZloFkeaJQiFEMwIHGkaUZo2VtQvmqmSN2fZo0QhytM9Bqf2WCytEmslRL2S6xZPJbJYLBaLxWKxWCwWi8VisVgsFovFYrFYLBaLxWKxWCwWi8VisVgsFovFYrFYLBaLxWKxWCwWi8VisVgsVsfSv/3b/wc21J4jP/WmUQAAAABJRU5ErkJggg==;" vertex="1" parent="1">
                    <mxGeometry x="295.90999999999997" y="87" width="105.82" height="150" as="geometry"/>
                </mxCell>
            </root>
        </mxGraphModel>
    </diagram>
</mxfile>